0
SECTION
2
HEADER
9
$INSUNITS
70
4
9
$ACADVER
1
AC1014
9
$HANDSEED
5
FFFF
0
ENDSEC
0
SECTION
2
TABLES
0
TABLE
2
VPORT
5
8
100
AcDbSymbolTable
0
ENDTAB
0
TABLE
2
LTYPE
5
5
100
AcDbSymbolTable
0
LTYPE
5
14
100
AcDbSymbolTableRecord
100
AcDbLinetypeTableRecord
2
BYBLOCK
70
0
0
LTYPE
5
15
100
AcDbSymbolTableRecord
100
AcDbLinetypeTableRecord
2
BYLAYER
70
0
0
ENDTAB
0
TABLE
2
LAYER
5
2
100
AcDbSymbolTable
70
2
0
LAYER
5
50
100
AcDbSymbolTableRecord
100
AcDbLayerTableRecord
2
0
70
0
6
CONTINUOUS
0
ENDTAB
0
TABLE
2
STYLE
5
3
100
AcDbSymbolTable
70
1
0
STYLE
5
11
100
AcDbSymbolTableRecord
100
AcDbTextStyleTableRecord
2
STANDARD
70
0
0
ENDTAB
0
TABLE
2
VIEW
5
6
100
AcDbSymbolTable
70
0
0
ENDTAB
0
TABLE
2
UCS
5
7
100
AcDbSymbolTable
70
0
0
ENDTAB
0
TABLE
2
APPID
5
9
100
AcDbSymbolTable
70
2
0
APPID
5
12
100
AcDbSymbolTableRecord
100
AcDbRegAppTableRecord
2
ACAD
70
0
0
ENDTAB
0
TABLE
2
DIMSTYLE
5
A
100
AcDbSymbolTable
70
1
0
ENDTAB
0
TABLE
2
BLOCK_RECORD
5
1
100
AcDbSymbolTable
70
1
0
BLOCK_RECORD
5
1F
100
AcDbSymbolTableRecord
100
AcDbBlockTableRecord
2
*MODEL_SPACE
0
BLOCK_RECORD
5
1B
100
AcDbSymbolTableRecord
100
AcDbBlockTableRecord
2
*PAPER_SPACE
0
ENDTAB
0
ENDSEC
0
SECTION
2
BLOCKS
0
BLOCK
5
20
100
AcDbEntity
100
AcDbBlockBegin
2
*MODEL_SPACE
0
ENDBLK
5
21
100
AcDbEntity
100
AcDbBlockEnd
0
BLOCK
5
1C
100
AcDbEntity
100
AcDbBlockBegin
2
*PAPER_SPACE
0
ENDBLK
5
1D
100
AcDbEntity
100
AcDbBlockEnd
0
ENDSEC
0
SECTION
2
ENTITIES
0
CIRCLE
5
100
100
AcDbEntity
8
0
100
AcDbCircle
10
-95.000003814697351
20
22.999999999999972
30
0
40
1.5499999999999934
210
5.3118054179158478e-51
220
-1.1707494865176188e-89
230
1
0
LWPOLYLINE
5
101
100
AcDbEntity
8
0
100
AcDbPolyline
90
4
70
1
43
0.0
10
-6.5000038146973571
20
265
10
-6.5000038146973571
20
205
10
-13.500003814697358
20
205
10
-13.500003814697358
20
265
0
LWPOLYLINE
5
102
100
AcDbEntity
8
0
100
AcDbPolyline
90
4
70
1
43
0.0
10
47.899999999999999
20
291.15000000000003
10
47.899999999999999
20
331.15000000000009
42
-0.99999999999999989
10
51.100000000000001
20
331.15000000000009
10
51.100000000000001
20
291.14999999999998
42
-0.99999999999999989
0
LWPOLYLINE
5
103
100
AcDbEntity
8
0
100
AcDbPolyline
90
4
70
1
43
0.0
10
-85.000003814697351
20
357.40000000000009
10
-125.00000381469735
20
357.40000000000009
42
-0.99999999999999989
10
-125.00000381469735
20
360.60000000000002
10
-85.000003814697351
20
360.60000000000002
42
-0.99999999999999989
0
CIRCLE
5
104
100
AcDbEntity
8
0
100
AcDbCircle
10
-3.8146973579955565e-06
20
267.5
30
0
40
1.6000000000000003
210
-3.37240022685441e-53
220
2.4776483846119749e-92
230
1
0
CIRCLE
5
105
100
AcDbEntity
8
0
100
AcDbCircle
10
-176.00000381469738
20
10
30
0
40
1.5500000000000114
210
-3.3724002268544091e-53
220
-2.4776483846119742e-92
230
1
0
LWPOLYLINE
5
106
100
AcDbEntity
8
0
100
AcDbPolyline
90
4
70
1
43
0.0
10
-71.000003814697351
20
56.749999999999972
10
-71.000003814697351
20
29.249999999999979
10
-119.00000381469737
20
29.249999999999979
10
-119.00000381469737
20
56.749999999999972
0
LWPOLYLINE
5
107
100
AcDbEntity
8
0
100
AcDbPolyline
90
4
70
1
43
0.0
10
13.499996185302642
20
205
10
6.4999961853026411
20
205
10
6.4999961853026411
20
265
10
13.499996185302642
20
265
0
LWPOLYLINE
5
108
100
AcDbEntity
8
0
100
AcDbPolyline
90
4
70
1
43
0.0
10
28.899999999999999
20
291.15000000000003
10
28.899999999999999
20
331.15000000000009
42
-0.99999999999999989
10
32.100000000000001
20
331.15000000000009
10
32.100000000000001
20
291.14999999999998
42
-0.99999999999999989
0
LWPOLYLINE
5
109
100
AcDbEntity
8
0
100
AcDbPolyline
90
4
70
1
43
0.0
10
-85.000003814697351
20
322.40000000000009
10
-125.00000381469735
20
322.40000000000009
42
-0.99999999999999989
10
-125.00000381469735
20
325.60000000000002
10
-85.000003814697351
20
325.60000000000002
42
-0.99999999999999989
0
CIRCLE
5
110
100
AcDbEntity
8
0
100
AcDbCircle
10
-3.8146973579955565e-06
20
202.5
30
0
40
1.6000000000000003
210
-3.37240022685441e-53
220
2.4776483846119749e-92
230
1
0
CIRCLE
5
111
100
AcDbEntity
8
0
100
AcDbCircle
10
175.99999618530265
20
10
30
0
40
1.5500000000000114
210
-3.3724002268544091e-53
220
-2.4776483846119742e-92
230
1
0
LWPOLYLINE
5
112
100
AcDbEntity
8
0
100
AcDbPolyline
90
4
70
1
43
0.0
10
114.99999618530265
20
404.00000000000006
10
114.99999618530265
20
410.00000000000006
10
124.99999618530265
20
410.00000000000006
10
124.99999618530265
20
404.00000000000006
0
CIRCLE
5
113
100
AcDbEntity
8
0
100
AcDbCircle
10
-95.000003814697351
20
407
30
0
40
1.5499999999999934
210
5.3455294201843925e-51
220
2.8565341034735624e-74
230
1
0
LWPOLYLINE
5
114
100
AcDbEntity
8
0
100
AcDbPolyline
90
4
70
1
43
0.0
10
19.999996185302642
20
60
10
19.999996185302642
20
66.000000000000014
10
29.999996185302642
20
66.000000000000014
10
29.999996185302642
20
60
0
LWPOLYLINE
5
115
100
AcDbEntity
8
0
100
AcDbPolyline
90
4
70
1
43
0.0
10
114.99999618530265
20
60
10
114.99999618530265
20
66.000000000000014
10
124.99999618530265
20
66.000000000000014
10
124.99999618530265
20
60
0
LWPOLYLINE
5
116
100
AcDbEntity
8
0
100
AcDbPolyline
90
4
70
1
43
0.0
10
64.999996185302649
20
60
10
64.999996185302649
20
66.000000000000014
10
74.999996185302649
20
66.000000000000014
10
74.999996185302649
20
60
0
LWPOLYLINE
5
117
100
AcDbEntity
8
0
100
AcDbPolyline
90
4
70
1
43
0.0
10
-30.000003814697358
20
60
10
-30.000003814697358
20
66.000000000000014
10
-20.000003814697358
20
66.000000000000014
10
-20.000003814697358
20
60
0
CIRCLE
5
118
100
AcDbEntity
8
0
100
AcDbCircle
10
-95.000003814697351
20
62.999999999999972
30
0
40
1.5499999999999934
210
5.3455294201843925e-51
220
2.8565341034735624e-74
230
1
0
LWPOLYLINE
5
119
100
AcDbEntity
8
0
100
AcDbPolyline
90
4
70
1
43
0.0
10
-30.000003814697358
20
404.00000000000006
10
-30.000003814697358
20
410.00000000000006
10
-20.000003814697358
20
410.00000000000006
10
-20.000003814697358
20
404.00000000000006
0
CIRCLE
5
120
100
AcDbEntity
8
0
100
AcDbCircle
10
94.999996185302649
20
407
30
0
40
1.5499999999999934
210
5.3455294201843925e-51
220
2.8565341034735624e-74
230
1
0
LWPOLYLINE
5
121
100
AcDbEntity
8
0
100
AcDbPolyline
90
4
70
1
43
0.0
10
19.999996185302642
20
404.00000000000006
10
19.999996185302642
20
410.00000000000006
10
29.999996185302642
20
410.00000000000006
10
29.999996185302642
20
404.00000000000006
0
LWPOLYLINE
5
122
100
AcDbEntity
8
0
100
AcDbPolyline
90
4
70
1
43
0.0
10
-75.000003814697351
20
404.00000000000006
10
-75.000003814697351
20
410.00000000000006
10
-65.000003814697351
20
410.00000000000006
10
-65.000003814697351
20
404.00000000000006
0
LWPOLYLINE
5
123
100
AcDbEntity
8
0
100
AcDbPolyline
90
4
70
1
43
0.0
10
-125.00000381469735
20
60
10
-125.00000381469735
20
66.000000000000014
10
-115.00000381469735
20
66.000000000000014
10
-115.00000381469735
20
60
0
CIRCLE
5
124
100
AcDbEntity
8
0
100
AcDbCircle
10
94.999996185302649
20
62.999999999999972
30
0
40
1.5499999999999934
210
5.3455294201843925e-51
220
2.8565341034735624e-74
230
1
0
CIRCLE
5
125
100
AcDbEntity
8
0
100
AcDbCircle
10
-3.8146973579955565e-06
20
62.999999999999972
30
0
40
1.5500000000000003
210
1.4232296117148084e-93
220
7.6054280191325707e-117
230
1
0
LWPOLYLINE
5
126
100
AcDbEntity
8
0
100
AcDbPolyline
90
4
70
1
43
0.0
10
-75.000003814697351
20
60
10
-75.000003814697351
20
66.000000000000014
10
-65.000003814697351
20
66.000000000000014
10
-65.000003814697351
20
60
0
LWPOLYLINE
5
127
100
AcDbEntity
8
0
100
AcDbPolyline
90
4
70
1
43
0.0
10
-125.00000381469735
20
404.00000000000006
10
-125.00000381469735
20
410.00000000000006
10
-115.00000381469735
20
410.00000000000006
10
-115.00000381469735
20
404.00000000000006
0
CIRCLE
5
128
100
AcDbEntity
8
0
100
AcDbCircle
10
-3.8146973579955573e-06
20
407
30
0
40
1.5500000000000003
210
1.4232296117148084e-93
220
7.6054280191325707e-117
230
1
0
LWPOLYLINE
5
129
100
AcDbEntity
8
0
100
AcDbPolyline
90
4
70
1
43
0.0
10
74.999996185302649
20
410.00000000000006
10
74.999996185302649
20
404.00000000000006
10
64.999996185302649
20
404.00000000000006
10
64.999996185302649
20
410.00000000000006
0
LWPOLYLINE
5
130
100
AcDbEntity
8
0
100
AcDbPolyline
90
4
70
1
43
0.0
10
-191.00000381469738
20
60
10
-191.00000381469738
20
70
10
-185.00000381469735
20
70
10
-185.00000381469735
20
60
0
CIRCLE
5
131
100
AcDbEntity
8
0
100
AcDbCircle
10
-188.00000381469738
20
90
30
0
40
1.5500000000000114
210
1.4232296117148084e-93
220
7.6054280191325707e-117
230
1
0
LWPOLYLINE
5
132
100
AcDbEntity
8
0
100
AcDbPolyline
90
4
70
1
43
0.0
10
-191.00000381469738
20
120
10
-185.00000381469735
20
120
10
-185.00000381469735
20
110
10
-191.00000381469738
20
110
0
LWPOLYLINE
5
133
100
AcDbEntity
8
0
100
AcDbPolyline
90
4
70
1
43
0.0
10
-185.00000381469735
20
177.00000000000003
10
-191.00000381469738
20
177.00000000000003
10
-191.00000381469738
20
187.00000000000003
10
-185.00000381469735
20
187.00000000000003
0
LWPOLYLINE
5
134
100
AcDbEntity
8
0
100
AcDbPolyline
90
4
70
1
43
0.0
10
-185.00000381469735
20
237.00000000000003
10
-185.00000381469735
20
227.00000000000003
10
-191.00000381469738
20
227.00000000000003
10
-191.00000381469738
20
237.00000000000003
0
CIRCLE
5
135
100
AcDbEntity
8
0
100
AcDbCircle
10
-188.00000381469738
20
207.00000000000003
30
0
40
1.5500000000000114
210
1.4232296117148084e-93
220
7.6054280191325707e-117
230
1
0
CIRCLE
5
136
100
AcDbEntity
8
0
100
AcDbCircle
10
-188.00000381469738
20
324.00000000000006
30
0
40
1.5500000000000114
210
1.4232296117148084e-93
220
7.6054280191325707e-117
230
1
0
LWPOLYLINE
5
137
100
AcDbEntity
8
0
100
AcDbPolyline
90
4
70
1
43
0.0
10
-185.00000381469735
20
354.00000000000006
10
-185.00000381469735
20
344.00000000000006
10
-191.00000381469738
20
344.00000000000006
10
-191.00000381469738
20
354.00000000000006
0
LWPOLYLINE
5
138
100
AcDbEntity
8
0
100
AcDbPolyline
90
4
70
1
43
0.0
10
-185.00000381469735
20
294.00000000000006
10
-191.00000381469738
20
294.00000000000006
10
-191.00000381469738
20
304.00000000000006
10
-185.00000381469735
20
304.00000000000006
0
LWPOLYLINE
5
139
100
AcDbEntity
8
0
100
AcDbPolyline
90
4
70
1
43
0.0
10
190.99999618530265
20
294.00000000000006
10
184.99999618530265
20
294.00000000000006
10
184.99999618530265
20
304.00000000000006
10
190.99999618530265
20
304.00000000000006
0
LWPOLYLINE
5
140
100
AcDbEntity
8
0
100
AcDbPolyline
90
4
70
1
43
0.0
10
184.99999618530265
20
344.00000000000006
10
184.99999618530265
20
354.00000000000006
10
190.99999618530265
20
354.00000000000006
10
190.99999618530265
20
344.00000000000006
0
CIRCLE
5
141
100
AcDbEntity
8
0
100
AcDbCircle
10
187.99999618530265
20
324.00000000000006
30
0
40
1.5500000000000114
210
1.4232296117148084e-93
220
7.6054280191325707e-117
230
1
0
CIRCLE
5
142
100
AcDbEntity
8
0
100
AcDbCircle
10
187.99999618530265
20
207.00000000000003
30
0
40
1.5500000000000114
210
1.4232296117148084e-93
220
7.6054280191325707e-117
230
1
0
LWPOLYLINE
5
143
100
AcDbEntity
8
0
100
AcDbPolyline
90
4
70
1
43
0.0
10
184.99999618530265
20
227.00000000000003
10
184.99999618530265
20
237.00000000000003
10
190.99999618530265
20
237.00000000000003
10
190.99999618530265
20
227.00000000000003
0
LWPOLYLINE
5
144
100
AcDbEntity
8
0
100
AcDbPolyline
90
4
70
1
43
0.0
10
190.99999618530265
20
177.00000000000003
10
184.99999618530265
20
177.00000000000003
10
184.99999618530265
20
187.00000000000003
10
190.99999618530265
20
187.00000000000003
0
LWPOLYLINE
5
145
100
AcDbEntity
8
0
100
AcDbPolyline
90
4
70
1
43
0.0
10
184.99999618530265
20
120
10
190.99999618530265
20
120
10
190.99999618530265
20
110
10
184.99999618530265
20
110
0
CIRCLE
5
146
100
AcDbEntity
8
0
100
AcDbCircle
10
187.99999618530265
20
90
30
0
40
1.5500000000000114
210
1.4232296117148084e-93
220
7.6054280191325707e-117
230
1
0
LWPOLYLINE
5
147
100
AcDbEntity
8
0
100
AcDbPolyline
90
4
70
1
43
0.0
10
190.99999618530265
20
70
10
190.99999618530265
20
60
10
184.99999618530265
20
60
10
184.99999618530265
20
70
0
LWPOLYLINE
5
148
100
AcDbEntity
8
0
100
AcDbPolyline
90
12
70
1
43
0.0
10
153.53553009123539
20
1.4644660940672565
42
0.19891236737965931
10
157.07106399716812
20
1.6653345369377348e-15
10
194.99999618530265
20
1.5097922496610885e-21
10
194.99999618530265
20
414.00000000000006
10
-195.00000381469735
20
414.00000000000006
10
-195.00000381469735
20
0
10
-157.07107162656283
20
0
42
0.19891236737965901
10
-153.53553772063012
20
1.4644660940672558
10
-141.46446990876461
20
13.535533905932734
42
-0.19891236737965914
10
-137.92893600283188
20
15.000000000000007
10
137.92892837343717
20
15.000000000000002
42
-0.1989123673796595
10
141.46446227936988
20
13.535533905932745
0
CIRCLE
5
149
100
AcDbEntity
8
0
100
AcDbCircle
10
-3.0000038146973584
20
387
30
0
40
1.7500000000000002
210
0
220
0
230
1
0
CIRCLE
5
150
100
AcDbEntity
8
0
100
AcDbCircle
10
2.9999961853026424
20
387
30
0
40
1.7500000000000002
210
0
220
0
230
1
0
LINE
5
151
100
AcDbEntity
8
0
100
AcDbLine
10
-70
20
215.00000000000003
30
0
11
100
21
215.00000000000003
31
0
0
CIRCLE
5
152
100
AcDbEntity
8
0
100
AcDbCircle
10
2.9999961853026402
20
43.000000000000043
30
0
40
1.7500000000000002
210
0
220
0
230
1
0
CIRCLE
5
153
100
AcDbEntity
8
0
100
AcDbCircle
10
-3.0000038146973562
20
43.000000000000043
30
0
40
1.7500000000000002
210
0
220
0
230
1
0
ENDSEC
0
SECTION
2
OBJECTS
0
DICTIONARY
5
C
100
AcDbDictionary
3
ACAD_GROUP
350
D
3
ACAD_MLINESTYLE
350
17
0
DICTIONARY
5
D
100
AcDbDictionary
0
DICTIONARY
5
1A
330
C
100
AcDbDictionary
0
DICTIONARY
5
17
100
AcDbDictionary
0
ENDSEC
0
EOF
