0
SECTION
2
HEADER
9
$INSUNITS
70
4
9
$ACADVER
1
AC1014
9
$HANDSEED
5
FFFF
0
ENDSEC
0
SECTION
2
TABLES
0
TABLE
2
VPORT
5
8
100
AcDbSymbolTable
0
ENDTAB
0
TABLE
2
LTYPE
5
5
100
AcDbSymbolTable
0
LTYPE
5
14
100
AcDbSymbolTableRecord
100
AcDbLinetypeTableRecord
2
BYBLOCK
70
0
0
LTYPE
5
15
100
AcDbSymbolTableRecord
100
AcDbLinetypeTableRecord
2
BYLAYER
70
0
0
ENDTAB
0
TABLE
2
LAYER
5
2
100
AcDbSymbolTable
70
2
0
LAYER
5
50
100
AcDbSymbolTableRecord
100
AcDbLayerTableRecord
2
0
70
0
6
CONTINUOUS
0
ENDTAB
0
TABLE
2
STYLE
5
3
100
AcDbSymbolTable
70
1
0
STYLE
5
11
100
AcDbSymbolTableRecord
100
AcDbTextStyleTableRecord
2
STANDARD
70
0
0
ENDTAB
0
TABLE
2
VIEW
5
6
100
AcDbSymbolTable
70
0
0
ENDTAB
0
TABLE
2
UCS
5
7
100
AcDbSymbolTable
70
0
0
ENDTAB
0
TABLE
2
APPID
5
9
100
AcDbSymbolTable
70
2
0
APPID
5
12
100
AcDbSymbolTableRecord
100
AcDbRegAppTableRecord
2
ACAD
70
0
0
ENDTAB
0
TABLE
2
DIMSTYLE
5
A
100
AcDbSymbolTable
70
1
0
ENDTAB
0
TABLE
2
BLOCK_RECORD
5
1
100
AcDbSymbolTable
70
1
0
BLOCK_RECORD
5
1F
100
AcDbSymbolTableRecord
100
AcDbBlockTableRecord
2
*MODEL_SPACE
0
BLOCK_RECORD
5
1B
100
AcDbSymbolTableRecord
100
AcDbBlockTableRecord
2
*PAPER_SPACE
0
ENDTAB
0
ENDSEC
0
SECTION
2
BLOCKS
0
BLOCK
5
20
100
AcDbEntity
100
AcDbBlockBegin
2
*MODEL_SPACE
0
ENDBLK
5
21
100
AcDbEntity
100
AcDbBlockEnd
0
BLOCK
5
1C
100
AcDbEntity
100
AcDbBlockBegin
2
*PAPER_SPACE
0
ENDBLK
5
1D
100
AcDbEntity
100
AcDbBlockEnd
0
ENDSEC
0
SECTION
2
ENTITIES
0
LWPOLYLINE
5
100
100
AcDbEntity
8
0
100
AcDbPolyline
90
32
70
1
43
0.0
10
-95.999999999999957
20
-187.49999999999966
10
-93.499999999999957
20
-189.99999999999966
10
93.499999999999957
20
-189.99999999999966
10
95.999999999999957
20
-187.49999999999966
10
96.000000000000071
20
-138.54958938799246
42
-0.10959240809862489
10
97.501069760075836
20
-131.78342194269445
10
108.49893023992421
20
-108.21657805730527
42
0.10959240809862772
10
109.99999999999997
20
-101.45041061200726
10
109.99999999999997
20
49.3725830020309
42
-0.19891236737965823
10
114.68629150101522
20
60.686291501015681
10
176.31370849898488
20
122.31370849898512
42
0.19891236737965995
10
181.0000000000002
20
133.62741699796993
10
181.00000000000017
20
164.5000000000004
10
178.50000000000017
20
167.0000000000004
10
147.62741699796965
20
167.0000000000004
42
0.1989123673796582
10
136.31370849898491
20
162.31370849898519
10
93.686291501014693
20
119.68629150101513
42
-0.1989123673796579
10
82.372583002029941
20
114.99999999999991
10
-82.372583002030041
20
115.00000000000001
42
-0.19891236737965731
10
-93.686291501014765
20
119.68629150101523
10
-136.31370849898488
20
162.31370849898519
42
0.19891236737965898
10
-147.62741699796962
20
167.0000000000004
10
-178.50000000000017
20
167.0000000000004
10
-181.00000000000017
20
164.5000000000004
10
-181.00000000000017
20
133.6274169979699
42
0.19891236737966039
10
-176.31370849898488
20
122.31370849898511
10
-114.68629150101521
20
60.68629150101566
42
-0.19891236737965892
10
-109.99999999999994
20
49.372583002030851
10
-110.00000000000017
20
-101.4504106120072
42
0.10959240809862766
10
-108.49893023992435
20
-108.21657805730533
10
-97.501069760075879
20
-131.78342194269445
42
-0.10959240809862646
10
-96.000000000000071
20
-138.54958938799254
0
CIRCLE
5
101
100
AcDbEntity
8
0
100
AcDbCircle
10
104.49999999999753
20
-99.500000000000014
30
0
40
1.7500000000000071
210
0
220
-0
230
1
0
CIRCLE
5
102
100
AcDbEntity
8
0
100
AcDbCircle
10
176.31370849898497
20
162.31370849898522
30
0
40
1.7500000000000142
210
0
220
-0
230
1
0
CIRCLE
5
103
100
AcDbEntity
8
0
100
AcDbCircle
10
153.68629150101532
20
162.31370849898522
30
0
40
1.7499999999999964
210
0
220
-0
230
1
0
CIRCLE
5
104
100
AcDbEntity
8
0
100
AcDbCircle
10
-68.686291501015205
20
-185.31370849898445
30
0
40
1.7499999999999964
210
0
220
-0
230
1
0
CIRCLE
5
105
100
AcDbEntity
8
0
100
AcDbCircle
10
80
20
-173.99999999999963
30
0
40
10.999999999999996
210
0
220
-0
230
1
0
CIRCLE
5
106
100
AcDbEntity
8
0
100
AcDbCircle
10
91.313708498984809
20
-185.31370849898445
30
0
40
1.7499999999999964
210
0
220
-0
230
1
0
CIRCLE
5
107
100
AcDbEntity
8
0
100
AcDbCircle
10
68.686291501015205
20
-185.31370849898445
30
0
40
1.7499999999999964
210
0
220
-0
230
1
0
CIRCLE
5
108
100
AcDbEntity
8
0
100
AcDbCircle
10
-80
20
-173.99999999999963
30
0
40
10.999999999999996
210
0
220
-0
230
1
0
CIRCLE
5
109
100
AcDbEntity
8
0
100
AcDbCircle
10
0
20
-173.99999999999963
30
0
40
5.1250000000000009
210
0
220
-0
230
1
0
CIRCLE
5
110
100
AcDbEntity
8
0
100
AcDbCircle
10
91.313708498984809
20
-162.68629150101481
30
0
40
1.7499999999999964
210
0
220
-0
230
1
0
CIRCLE
5
111
100
AcDbEntity
8
0
100
AcDbCircle
10
-165.00000000000014
20
151.0000000000004
30
0
40
11.000000000000014
210
0
220
-0
230
1
0
CIRCLE
5
112
100
AcDbEntity
8
0
100
AcDbCircle
10
68.686291501015205
20
-162.68629150101481
30
0
40
1.7499999999999964
210
0
220
-0
230
1
0
CIRCLE
5
113
100
AcDbEntity
8
0
100
AcDbCircle
10
176.31370849898497
20
139.6862915010156
30
0
40
1.7500000000000142
210
0
220
-0
230
1
0
CIRCLE
5
114
100
AcDbEntity
8
0
100
AcDbCircle
10
153.68629150101532
20
139.6862915010156
30
0
40
1.7499999999999964
210
0
220
-0
230
1
0
CIRCLE
5
115
100
AcDbEntity
8
0
100
AcDbCircle
10
-153.68629150101532
20
162.31370849898519
30
0
40
1.7499999999999964
210
0
220
-0
230
1
0
CIRCLE
5
116
100
AcDbEntity
8
0
100
AcDbCircle
10
-91.313708498984809
20
-185.31370849898445
30
0
40
1.7499999999999964
210
0
220
-0
230
1
0
CIRCLE
5
117
100
AcDbEntity
8
0
100
AcDbCircle
10
-91.313708498984809
20
-162.68629150101481
30
0
40
1.7499999999999964
210
0
220
-0
230
1
0
CIRCLE
5
118
100
AcDbEntity
8
0
100
AcDbCircle
10
-104.49999999999176
20
109.50000000000394
30
0
40
1.7500000000000071
210
0
220
0
230
1
0
CIRCLE
5
119
100
AcDbEntity
8
0
100
AcDbCircle
10
-153.68629150101532
20
139.6862915010156
30
0
40
1.7499999999999964
210
0
220
-0
230
1
0
CIRCLE
5
120
100
AcDbEntity
8
0
100
AcDbCircle
10
-176.31370849898497
20
139.6862915010156
30
0
40
1.7500000000000142
210
0
220
-0
230
1
0
CIRCLE
5
121
100
AcDbEntity
8
0
100
AcDbCircle
10
165.00000000000014
20
151.0000000000004
30
0
40
10.999999999999996
210
0
220
-0
230
1
0
CIRCLE
5
122
100
AcDbEntity
8
0
100
AcDbCircle
10
104.50000000000435
20
109.49999999999591
30
0
40
1.7500000000000071
210
0
220
-0
230
1
0
CIRCLE
5
123
100
AcDbEntity
8
0
100
AcDbCircle
10
-104.50000000000438
20
-99.499999999998948
30
0
40
1.7500000000000071
210
0
220
-0
230
1
0
CIRCLE
5
124
100
AcDbEntity
8
0
100
AcDbCircle
10
-176.31370849898497
20
162.31370849898519
30
0
40
1.7500000000000142
210
0
220
-0
230
1
0
CIRCLE
5
125
100
AcDbEntity
8
0
100
AcDbCircle
10
-68.686291501015205
20
-162.68629150101481
30
0
40
1.7499999999999964
210
0
220
-0
230
1
0
CIRCLE
5
126
100
AcDbEntity
8
0
100
AcDbCircle
10
-5.656854249492369
20
-179.656854249492
30
0
40
1.7500000000000004
210
0
220
-0
230
1
0
CIRCLE
5
127
100
AcDbEntity
8
0
100
AcDbCircle
10
-5.6568542494923832
20
-168.34314575050726
30
0
40
1.7500000000000004
210
0
220
-0
230
1
0
CIRCLE
5
128
100
AcDbEntity
8
0
100
AcDbCircle
10
5.656854249492369
20
-168.34314575050723
30
0
40
1.7500000000000004
210
0
220
-0
230
1
0
CIRCLE
5
129
100
AcDbEntity
8
0
100
AcDbCircle
10
5.656854249492385
20
-179.656854249492
30
0
40
1.7500000000000004
210
0
220
-0
230
1
0
ENDSEC
0
SECTION
2
OBJECTS
0
DICTIONARY
5
C
100
AcDbDictionary
3
ACAD_GROUP
350
D
3
ACAD_MLINESTYLE
350
17
0
DICTIONARY
5
D
100
AcDbDictionary
0
DICTIONARY
5
1A
330
C
100
AcDbDictionary
0
DICTIONARY
5
17
100
AcDbDictionary
0
ENDSEC
0
EOF
