0
SECTION
2
HEADER
9
$INSUNITS
70
4
9
$ACADVER
1
AC1014
9
$HANDSEED
5
FFFF
0
ENDSEC
0
SECTION
2
TABLES
0
TABLE
2
VPORT
5
8
100
AcDbSymbolTable
0
ENDTAB
0
TABLE
2
LTYPE
5
5
100
AcDbSymbolTable
0
LTYPE
5
14
100
AcDbSymbolTableRecord
100
AcDbLinetypeTableRecord
2
BYBLOCK
70
0
0
LTYPE
5
15
100
AcDbSymbolTableRecord
100
AcDbLinetypeTableRecord
2
BYLAYER
70
0
0
ENDTAB
0
TABLE
2
LAYER
5
2
100
AcDbSymbolTable
70
2
0
LAYER
5
50
100
AcDbSymbolTableRecord
100
AcDbLayerTableRecord
2
0
70
0
6
CONTINUOUS
0
ENDTAB
0
TABLE
2
STYLE
5
3
100
AcDbSymbolTable
70
1
0
STYLE
5
11
100
AcDbSymbolTableRecord
100
AcDbTextStyleTableRecord
2
STANDARD
70
0
0
ENDTAB
0
TABLE
2
VIEW
5
6
100
AcDbSymbolTable
70
0
0
ENDTAB
0
TABLE
2
UCS
5
7
100
AcDbSymbolTable
70
0
0
ENDTAB
0
TABLE
2
APPID
5
9
100
AcDbSymbolTable
70
2
0
APPID
5
12
100
AcDbSymbolTableRecord
100
AcDbRegAppTableRecord
2
ACAD
70
0
0
ENDTAB
0
TABLE
2
DIMSTYLE
5
A
100
AcDbSymbolTable
70
1
0
ENDTAB
0
TABLE
2
BLOCK_RECORD
5
1
100
AcDbSymbolTable
70
1
0
BLOCK_RECORD
5
1F
100
AcDbSymbolTableRecord
100
AcDbBlockTableRecord
2
*MODEL_SPACE
0
BLOCK_RECORD
5
1B
100
AcDbSymbolTableRecord
100
AcDbBlockTableRecord
2
*PAPER_SPACE
0
ENDTAB
0
ENDSEC
0
SECTION
2
BLOCKS
0
BLOCK
5
20
100
AcDbEntity
100
AcDbBlockBegin
2
*MODEL_SPACE
0
ENDBLK
5
21
100
AcDbEntity
100
AcDbBlockEnd
0
BLOCK
5
1C
100
AcDbEntity
100
AcDbBlockBegin
2
*PAPER_SPACE
0
ENDBLK
5
1D
100
AcDbEntity
100
AcDbBlockEnd
0
ENDSEC
0
SECTION
2
ENTITIES
0
LWPOLYLINE
5
100
100
AcDbEntity
8
0
100
AcDbPolyline
90
248
70
1
43
0.0
10
-169.99999618530273
20
-184.99999999998869
42
0.41421356237309648
10
-184.99999618530273
20
-169.99999999998869
10
-184.99999618530268
20
-124.9999999999887
10
-190.99999618530268
20
-124.99999999998869
10
-190.99999618530268
20
-114.99999999998865
10
-184.99999618530265
20
-114.99999999998866
10
-184.99999618530273
20
-96.5499999999887
10
-178.399996185303
20
-96.549999999988671
10
-178.399996185303
20
-97.749999999988674
10
-175.99999618530302
20
-97.749999999988532
10
-175.99999618530276
20
-96.549999999988614
10
-173.19999618530275
20
-96.549999999988515
10
-173.19999618530275
20
-93.449999999988691
10
-175.99999618530276
20
-93.449999999988691
10
-175.99999618530302
20
-92.249999999988518
10
-178.399996185303
20
-92.249999999988631
10
-178.399996185303
20
-93.44999999998879
10
-184.99999618530273
20
-93.449999999988677
10
-184.99999618530271
20
-74.99999999998866
10
-190.99999618530276
20
-74.999999999988688
10
-190.99999618530276
20
-64.999999999988688
10
-184.99999618530273
20
-64.999999999988688
10
-184.99999618530268
20
-29.999999999988702
10
-190.99999618530268
20
-29.999999999988695
10
-190.99999618530268
20
-19.999999999988649
10
-184.99999618530265
20
-19.999999999988667
10
-184.99999618530273
20
-1.549999999988696
10
-178.399996185303
20
-1.549999999988672
10
-178.399996185303
20
-2.7499999999886695
10
-175.99999618530302
20
-2.7499999999885292
10
-175.99999618530276
20
-1.549999999988606
10
-173.19999618530275
20
-1.5499999999885268
10
-173.19999618530275
20
1.5500000000113028
10
-175.99999618530276
20
1.5500000000113028
10
-175.99999618530302
20
2.7500000000114726
10
-178.399996185303
20
2.750000000011366
10
-178.399996185303
20
1.5500000000111966
10
-184.99999618530273
20
1.5500000000113201
10
-184.99999618530271
20
20.000000000011333
10
-190.99999618530276
20
20.000000000011315
10
-190.99999618530276
20
30.000000000011315
10
-184.99999618530273
20
30.000000000011315
10
-184.99999618530268
20
65.000000000011298
10
-190.99999618530268
20
65.000000000011312
10
-190.99999618530268
20
75.000000000011354
10
-184.99999618530265
20
75.00000000001134
10
-184.99999618530273
20
93.4500000000113
10
-178.399996185303
20
93.450000000011329
10
-178.399996185303
20
92.250000000011326
10
-175.99999618530302
20
92.250000000011468
10
-175.99999618530276
20
93.450000000011386
10
-173.19999618530275
20
93.450000000011485
10
-173.19999618530275
20
96.550000000011309
10
-175.99999618530276
20
96.550000000011309
10
-175.99999618530302
20
97.750000000011482
10
-178.399996185303
20
97.750000000011369
10
-178.399996185303
20
96.55000000001121
10
-184.99999618530273
20
96.550000000011323
10
-184.99999618530271
20
115.00000000001134
10
-190.99999618530276
20
115.00000000001131
10
-190.99999618530276
20
125.00000000001131
10
-184.99999618530273
20
125.00000000001131
10
-184.99999618530273
20
169.99999999999068
42
0.41421356237309648
10
-169.99999618530273
20
184.99999999999068
10
-124.99999618530273
20
185.00000000001134
10
-124.99999618530275
20
191.00000000001131
10
-114.99999618530273
20
191.00000000001134
10
-114.99999618530275
20
185.00000000001125
10
-96.54999618530276
20
185.00000000001137
10
-96.549996185302604
20
178.40000000001163
10
-97.749996185302805
20
178.40000000001163
10
-97.749996185302876
20
176.00000000001165
10
-96.549996185302689
20
176.00000000001137
10
-96.549996185302717
20
173.20000000001141
10
-93.449996185302879
20
173.20000000001136
10
-93.449996185302837
20
176.00000000001145
10
-92.249996185302834
20
176.0000000000116
10
-92.249996185302763
20
178.40000000001166
10
-93.449996185302737
20
178.40000000001163
10
-93.449996185302737
20
185.0000000000114
10
-74.999996185302734
20
185.0000000000112
10
-74.999996185302777
20
191.00000000001128
10
-64.99999618530272
20
191.00000000001128
10
-64.999996185302706
20
185.0000000000112
10
-29.999996185302749
20
185.00000000001131
10
-29.999996185302749
20
191.00000000001131
10
-19.999996185302731
20
191.00000000001134
10
-19.999996185302749
20
185.00000000001125
10
-1.5499961853027511
20
185.00000000001137
10
-1.5499961853025939
20
178.40000000001163
10
-2.7499961853028037
20
178.40000000001163
10
-2.7499961853028725
20
176.00000000001165
10
-1.5499961853026898
20
176.00000000001137
10
-1.5499961853027266
20
173.20000000001141
10
1.5500038146971256
20
173.20000000001136
10
1.5500038146971611
20
176.00000000001145
10
2.7500038146971661
20
176.0000000000116
10
2.7500038146972372
20
178.40000000001166
10
1.5500038146972552
20
178.40000000001163
10
1.5500038146972561
20
185.0000000000114
10
20.000003814697269
20
185.0000000000112
10
20.000003814697223
20
191.00000000001128
10
30.00000381469728
20
191.00000000001128
10
30.000003814697283
20
185.0000000000112
10
65.000003814697266
20
185.00000000001134
10
65.000003814697251
20
191.00000000001131
10
75.000003814697266
20
191.00000000001134
10
75.000003814697251
20
185.00000000001125
10
93.45000381469724
20
185.00000000001137
10
93.450003814697396
20
178.40000000001163
10
92.250003814697195
20
178.40000000001163
10
92.250003814697124
20
176.00000000001165
10
93.450003814697311
20
176.00000000001137
10
93.450003814697283
20
173.20000000001141
10
96.550003814697121
20
173.20000000001136
10
96.550003814697163
20
176.00000000001145
10
97.750003814697166
20
176.0000000000116
10
97.750003814697237
20
178.40000000001166
10
96.550003814697263
20
178.40000000001163
10
96.550003814697263
20
185.0000000000114
10
115.00000381469727
20
185.0000000000112
10
115.00000381469721
20
191.00000000001128
10
125.00000381469729
20
191.00000000001128
10
125.00000381469727
20
185.0000000000112
10
169.99999618530273
20
184.99999999999068
42
0.41421371134629853
10
185.00000381469727
20
169.99999999999068
10
185.00000381469727
20
125.00000000001131
10
191.00000381469727
20
125.00000000001131
10
191.00000381469727
20
115.00000000001131
10
185.00000381469721
20
115.00000000001134
10
185.00000381469727
20
96.550000000011323
10
178.4000038146975
20
96.55000000001121
10
178.4000038146975
20
97.750000000011369
10
176.00000381469752
20
97.750000000011482
10
176.00000381469727
20
96.550000000011309
10
173.20000381469725
20
96.550000000011309
10
173.20000381469725
20
93.450000000011485
10
176.00000381469727
20
93.450000000011386
10
176.00000381469752
20
92.250000000011468
10
178.4000038146975
20
92.250000000011326
10
178.4000038146975
20
93.450000000011329
10
185.00000381469727
20
93.4500000000113
10
185.00000381469715
20
75.000000000011326
10
191.00000381469721
20
75.00000000001134
10
191.00000381469721
20
65.000000000011312
10
185.00000381469718
20
65.000000000011312
10
185.00000381469727
20
30.000000000011298
10
191.00000381469727
20
30.000000000011298
10
191.00000381469727
20
20.000000000011298
10
185.00000381469727
20
20.000000000011298
10
185.00000381469727
20
1.5500000000113201
10
178.4000038146975
20
1.5500000000111962
10
178.4000038146975
20
2.7500000000113705
10
176.00000381469752
20
2.7500000000114748
10
176.00000381469727
20
1.5500000000113054
10
173.20000381469725
20
1.5500000000113043
10
173.20000381469725
20
-1.5499999999885263
10
176.00000381469727
20
-1.549999999988606
10
176.00000381469752
20
-2.7499999999885287
10
178.4000038146975
20
-2.7499999999886695
10
178.4000038146975
20
-1.5499999999886718
10
185.00000381469727
20
-1.549999999988696
10
185.00000381469727
20
-19.999999999988631
10
191.00000381469727
20
-19.999999999988631
10
191.00000381469727
20
-29.999999999988631
10
185.00000381469727
20
-29.999999999988631
10
185.00000381469727
20
-64.999999999988688
10
191.00000381469727
20
-64.999999999988688
10
191.00000381469727
20
-74.999999999988688
10
185.00000381469721
20
-74.99999999998866
10
185.00000381469727
20
-93.449999999988677
10
178.4000038146975
20
-93.44999999998879
10
178.4000038146975
20
-92.249999999988631
10
176.00000381469752
20
-92.249999999988518
10
176.00000381469727
20
-93.449999999988691
10
173.20000381469725
20
-93.449999999988691
10
173.20000381469725
20
-96.549999999988515
10
176.00000381469727
20
-96.549999999988614
10
176.00000381469752
20
-97.749999999988532
10
178.4000038146975
20
-97.749999999988674
10
178.4000038146975
20
-96.549999999988671
10
185.00000381469727
20
-96.5499999999887
10
185.00000381469715
20
-114.99999999998866
10
191.00000381469721
20
-114.99999999998866
10
191.00000381469721
20
-124.99999999998869
10
185.00000381469718
20
-124.9999999999887
10
184.99999618530273
20
-169.99999999998869
42
0.41421356237309648
10
169.99999618530273
20
-184.99999999998869
10
125.00000381469729
20
-184.9999999999886
10
125.00000381469729
20
-190.99999999998869
10
115.00000381469727
20
-190.99999999998869
10
115.00000381469725
20
-184.9999999999886
10
96.550003814697263
20
-184.9999999999888
10
96.550003814697263
20
-178.39999999998901
10
97.750003814697237
20
-178.39999999998906
10
97.750003814697166
20
-175.999999999989
10
96.550003814697163
20
-175.99999999998886
10
96.550003814697121
20
-173.19999999998879
10
93.450003814697283
20
-173.19999999998882
10
93.450003814697311
20
-175.9999999999888
10
92.250003814697124
20
-175.99999999998909
10
92.250003814697195
20
-178.39999999998901
10
93.450003814697396
20
-178.39999999998901
10
93.45000381469724
20
-184.99999999998877
10
75.000003814697251
20
-184.99999999998866
10
75.000003814697266
20
-190.99999999998875
10
65.000003814697251
20
-190.99999999998872
10
65.000003814697266
20
-184.99999999998875
10
30.000003814697294
20
-184.9999999999886
10
30.00000381469728
20
-190.99999999998869
10
20.000003814697255
20
-190.99999999998869
10
20.000003814697322
20
-184.9999999999886
10
1.5500038146972652
20
-184.9999999999888
10
1.5500038146972601
20
-178.39999999998901
10
2.7500038146972345
20
-178.39999999998906
10
2.7500038146971626
20
-175.999999999989
10
1.550003814697152
20
-175.99999999998886
10
1.5500038146971251
20
-173.19999999998879
10
-1.54999618530273
20
-173.19999999998882
10
-1.549996185302692
20
-175.9999999999888
10
-2.7499961853028703
20
-175.99999999998909
10
-2.749996185302805
20
-178.39999999998901
10
-1.5499961853025981
20
-178.39999999998901
10
-1.5499961853027555
20
-184.99999999998877
10
-19.999996185302749
20
-184.99999999998866
10
-19.999996185302731
20
-190.99999999998875
10
-29.999996185302749
20
-190.99999999998872
10
-29.999996185302749
20
-184.99999999998869
10
-64.999996185302706
20
-184.9999999999886
10
-64.99999618530272
20
-190.99999999998869
10
-74.999996185302749
20
-190.99999999998869
10
-74.999996185302749
20
-184.9999999999886
10
-93.449996185302737
20
-184.9999999999888
10
-93.449996185302737
20
-178.39999999998901
10
-92.249996185302763
20
-178.39999999998906
10
-92.249996185302834
20
-175.999999999989
10
-93.449996185302837
20
-175.99999999998886
10
-93.449996185302879
20
-173.19999999998879
10
-96.549996185302717
20
-173.19999999998882
10
-96.549996185302689
20
-175.9999999999888
10
-97.749996185302876
20
-175.99999999998909
10
-97.749996185302805
20
-178.39999999998901
10
-96.549996185302604
20
-178.39999999998901
10
-96.54999618530276
20
-184.99999999998877
10
-114.99999618530275
20
-184.99999999998866
10
-114.99999618530273
20
-190.99999999998875
10
-124.99999618530275
20
-190.99999999998872
10
-124.99999618530273
20
-184.99999999998875
0
CIRCLE
5
101
100
AcDbEntity
8
0
100
AcDbCircle
10
-156.16116142047088
20
173.83883476484314
30
3.26311089784994e-38
40
1.5499999999999934
210
3.6734198463196493e-40
220
5.5292869205034001e-71
230
1
0
CIRCLE
5
102
100
AcDbEntity
8
0
100
AcDbCircle
10
173.83883857952912
20
156.16116523517942
30
-2.6143608562614975e-38
40
1.5500000000000114
210
-3.6734198463196485e-40
220
-5.5292869205033985e-71
230
1
0
CIRCLE
5
103
100
AcDbEntity
8
0
100
AcDbCircle
10
92.500003814697251
20
-159.99999999998863
30
3.2437502079422122e-39
40
1.5499999999999934
210
3.6734198463196493e-40
220
5.5292869205034001e-71
230
1
0
CIRCLE
5
104
100
AcDbEntity
8
0
100
AcDbCircle
10
15.500003814697262
20
-175.49999999998863
30
-4.1030894846970847e-39
40
1.5500000000000003
210
0
220
-0
230
1
0
CIRCLE
5
105
100
AcDbEntity
8
0
100
AcDbCircle
10
-79.999996185302749
20
-159.99999999998863
30
3.2437502079422122e-39
40
5.9999999999999964
210
0
220
-0
230
1
0
CIRCLE
5
106
100
AcDbEntity
8
0
100
AcDbCircle
10
3.8146972514141453e-06
20
-159.99999999998863
30
2.4522723125684299e-44
40
11
210
0
220
-0
230
1
0
CIRCLE
5
107
100
AcDbEntity
8
0
100
AcDbCircle
10
15.500003814697259
20
-144.49999999998863
30
3.2437502079422122e-39
40
1.5500000000000003
210
0
220
-0
230
1
0
CIRCLE
5
108
100
AcDbEntity
8
0
100
AcDbCircle
10
165.00000381469727
20
165.00000000001125
30
-2.6143608562614975e-38
40
5.9999999999999964
210
0
220
-0
230
1
0
CIRCLE
5
109
100
AcDbEntity
8
0
100
AcDbCircle
10
-173.83883095013462
20
156.16116523517942
30
3.26311089784994e-38
40
1.5500000000000114
210
-3.6734198463196485e-40
220
-5.5292869205033985e-71
230
1
0
CIRCLE
5
110
100
AcDbEntity
8
0
100
AcDbCircle
10
156.16116904986538
20
173.83883476484314
30
-2.6143608562614975e-38
40
1.5499999999999934
210
3.6734198463196493e-40
220
5.5292869205034001e-71
230
1
0
CIRCLE
5
111
100
AcDbEntity
8
0
100
AcDbCircle
10
80.000003814697251
20
-159.99999999998863
30
3.2437502079422122e-39
40
5.9999999999999964
210
0
220
-0
230
1
0
CIRCLE
5
112
100
AcDbEntity
8
0
100
AcDbCircle
10
-15.499996185302757
20
-175.49999999998863
30
-4.1030894846970847e-39
40
1.5500000000000003
210
0
220
-0
230
1
0
CIRCLE
5
113
100
AcDbEntity
8
0
100
AcDbCircle
10
-67.499996185302734
20
-159.99999999998863
30
3.2437502079422122e-39
40
1.5500000000000025
210
3.6734198463196485e-40
220
5.5292869205033985e-71
230
1
0
CIRCLE
5
114
100
AcDbEntity
8
0
100
AcDbCircle
10
-92.499996185302749
20
-159.99999999998863
30
3.2437502079422122e-39
40
1.5499999999999934
210
3.6734198463196493e-40
220
5.5292869205034001e-71
230
1
0
CIRCLE
5
115
100
AcDbEntity
8
0
100
AcDbCircle
10
-15.499996185302757
20
-144.49999999998863
30
-4.1030894846970847e-39
40
1.5500000000000003
210
0
220
-0
230
1
0
CIRCLE
5
116
100
AcDbEntity
8
0
100
AcDbCircle
10
67.500003814697237
20
-159.99999999998863
30
3.2437502079422122e-39
40
1.5500000000000025
210
3.6734198463196485e-40
220
5.5292869205033985e-71
230
1
0
CIRCLE
5
117
100
AcDbEntity
8
0
100
AcDbCircle
10
-164.99999618530273
20
165.00000000001125
30
-2.6143608562614975e-38
40
6.0000000000000142
210
0
220
-0
230
1
0
CIRCLE
5
118
100
AcDbEntity
8
0
100
AcDbCircle
10
-124.99999618530275
20
-74.999999999988745
30
-2.6143608562614975e-38
40
1.6000000000000014
210
0
220
-0
230
1
0
CIRCLE
5
119
100
AcDbEntity
8
0
100
AcDbCircle
10
-38.169996185302736
20
124.13000000001128
30
3.2437502079422122e-39
40
1.5874999999999995
210
0
220
-0
230
1
0
CIRCLE
5
120
100
AcDbEntity
8
0
100
AcDbCircle
10
113.25000381469751
20
-104.49999999998867
30
-2.6143608562614975e-38
40
1.6000000000000014
210
0
220
-0
230
1
0
CIRCLE
5
121
100
AcDbEntity
8
0
100
AcDbCircle
10
66.750003814697379
20
104.50000000001131
30
3.2437502079422122e-39
40
1.6000000000000014
210
0
220
-0
230
1
0
CIRCLE
5
122
100
AcDbEntity
8
0
100
AcDbCircle
10
-120.71999618530273
20
124.13000000001128
30
-2.6143608562614975e-38
40
1.587499999999995
210
0
220
-0
230
1
0
CIRCLE
5
123
100
AcDbEntity
8
0
100
AcDbCircle
10
-66.999996185302734
20
-74.999999999988745
30
-2.6143608562614975e-38
40
1.6000000000000014
210
0
220
-0
230
1
0
CIRCLE
5
124
100
AcDbEntity
8
0
100
AcDbCircle
10
-124.99999618530275
20
-25.999999999988734
30
-2.6143608562614975e-38
40
1.6000000000000014
210
0
220
-0
230
1
0
CIRCLE
5
125
100
AcDbEntity
8
0
100
AcDbCircle
10
-90.239996185302743
20
91.110000000011269
30
3.2437502079422122e-39
40
1.5875000000000126
210
0
220
-0
230
1
0
CIRCLE
5
126
100
AcDbEntity
8
0
100
AcDbCircle
10
66.750003814697493
20
-104.49999999998875
30
3.2437502079422122e-39
40
1.6000000000000014
210
0
220
-0
230
1
0
CIRCLE
5
127
100
AcDbEntity
8
0
100
AcDbCircle
10
113.25000381469738
20
104.50000000001131
30
3.26311089784994e-38
40
1.6000000000000014
210
0
220
-0
230
1
0
CIRCLE
5
128
100
AcDbEntity
8
0
100
AcDbCircle
10
-90.239996185302743
20
119.05000000001127
30
3.2437502079422122e-39
40
1.5875000000000126
210
0
220
-0
230
1
0
CIRCLE
5
129
100
AcDbEntity
8
0
100
AcDbCircle
10
-66.999996185302734
20
-25.999999999988734
30
-2.6143608562614975e-38
40
1.6000000000000014
210
0
220
-0
230
1
0
CIRCLE
5
130
100
AcDbEntity
8
0
100
AcDbCircle
10
-150.23999618530274
20
41.110000000011269
30
0
40
1.7500000000000002
210
0
220
0
230
1
0
CIRCLE
5
131
100
AcDbEntity
8
0
100
AcDbCircle
10
-156.23999618530274
20
41.110000000011269
30
0
40
1.7500000000000002
210
0
220
0
230
1
0
CIRCLE
5
132
100
AcDbEntity
8
0
100
AcDbCircle
10
-130.71999618530273
20
155.00000000001137
30
0
40
1.7500000000000002
210
0
220
0
230
1
0
CIRCLE
5
133
100
AcDbEntity
8
0
100
AcDbCircle
10
-136.71999618530273
20
155.00000000001137
30
0
40
1.7500000000000002
210
0
220
0
230
1
0
CIRCLE
5
134
100
AcDbEntity
8
0
100
AcDbCircle
10
25
20
0
30
0
40
1.7500000000000002
210
0
220
0
230
1
0
CIRCLE
5
135
100
AcDbEntity
8
0
100
AcDbCircle
10
19
20
0
30
0
40
1.7500000000000002
210
0
220
0
230
1
0
CIRCLE
5
136
100
AcDbEntity
8
0
100
AcDbCircle
10
100
20
140
30
0
40
1.7500000000000002
210
0
220
0
230
1
0
CIRCLE
5
137
100
AcDbEntity
8
0
100
AcDbCircle
10
100
20
146
30
0
40
1.7500000000000002
210
0
220
0
230
1
0
CIRCLE
5
138
100
AcDbEntity
8
0
100
AcDbCircle
10
154.99999618530273
20
-164.99999999998869
30
0
40
1.7500000000000002
210
0
220
0
230
1
0
CIRCLE
5
139
100
AcDbEntity
8
0
100
AcDbCircle
10
154.99999618530273
20
-158.99999999998869
30
0
40
1.7500000000000002
210
0
220
0
230
1
0
LINE
5
140
100
AcDbEntity
8
0
100
AcDbLine
10
0
20
0
30
0
11
-8.3266726846886741e-15
21
-66.636256136475822
31
-4.2966963837743622e-40
0
CIRCLE
5
141
100
AcDbEntity
8
0
100
AcDbCircle
10
-154.99999618530279
20
-164.99999999998866
30
0
40
1.7500000000000002
210
0
220
0
230
1
0
CIRCLE
5
142
100
AcDbEntity
8
0
100
AcDbCircle
10
-154.99999618530279
20
-158.99999999998866
30
0
40
1.7500000000000002
210
0
220
0
230
1
0
ENDSEC
0
SECTION
2
OBJECTS
0
DICTIONARY
5
C
100
AcDbDictionary
3
ACAD_GROUP
350
D
3
ACAD_MLINESTYLE
350
17
0
DICTIONARY
5
D
100
AcDbDictionary
0
DICTIONARY
5
1A
330
C
100
AcDbDictionary
0
DICTIONARY
5
17
100
AcDbDictionary
0
ENDSEC
0
EOF
