0
SECTION
2
HEADER
9
$INSUNITS
70
4
9
$ACADVER
1
AC1014
9
$HANDSEED
5
FFFF
0
ENDSEC
0
SECTION
2
TABLES
0
TABLE
2
VPORT
5
8
100
AcDbSymbolTable
0
ENDTAB
0
TABLE
2
LTYPE
5
5
100
AcDbSymbolTable
0
LTYPE
5
14
100
AcDbSymbolTableRecord
100
AcDbLinetypeTableRecord
2
BYBLOCK
70
0
0
LTYPE
5
15
100
AcDbSymbolTableRecord
100
AcDbLinetypeTableRecord
2
BYLAYER
70
0
0
ENDTAB
0
TABLE
2
LAYER
5
2
100
AcDbSymbolTable
70
2
0
LAYER
5
50
100
AcDbSymbolTableRecord
100
AcDbLayerTableRecord
2
0
70
0
6
CONTINUOUS
0
ENDTAB
0
TABLE
2
STYLE
5
3
100
AcDbSymbolTable
70
1
0
STYLE
5
11
100
AcDbSymbolTableRecord
100
AcDbTextStyleTableRecord
2
STANDARD
70
0
0
ENDTAB
0
TABLE
2
VIEW
5
6
100
AcDbSymbolTable
70
0
0
ENDTAB
0
TABLE
2
UCS
5
7
100
AcDbSymbolTable
70
0
0
ENDTAB
0
TABLE
2
APPID
5
9
100
AcDbSymbolTable
70
2
0
APPID
5
12
100
AcDbSymbolTableRecord
100
AcDbRegAppTableRecord
2
ACAD
70
0
0
ENDTAB
0
TABLE
2
DIMSTYLE
5
A
100
AcDbSymbolTable
70
1
0
ENDTAB
0
TABLE
2
BLOCK_RECORD
5
1
100
AcDbSymbolTable
70
1
0
BLOCK_RECORD
5
1F
100
AcDbSymbolTableRecord
100
AcDbBlockTableRecord
2
*MODEL_SPACE
0
BLOCK_RECORD
5
1B
100
AcDbSymbolTableRecord
100
AcDbBlockTableRecord
2
*PAPER_SPACE
0
ENDTAB
0
ENDSEC
0
SECTION
2
BLOCKS
0
BLOCK
5
20
100
AcDbEntity
100
AcDbBlockBegin
2
*MODEL_SPACE
0
ENDBLK
5
21
100
AcDbEntity
100
AcDbBlockEnd
0
BLOCK
5
1C
100
AcDbEntity
100
AcDbBlockBegin
2
*PAPER_SPACE
0
ENDBLK
5
1D
100
AcDbEntity
100
AcDbBlockEnd
0
ENDSEC
0
SECTION
2
ENTITIES
0
LWPOLYLINE
5
100
100
AcDbEntity
8
0
100
AcDbPolyline
90
8
70
1
43
0.0
10
155.00000381469721
20
359.00000000000006
10
155.00000381469718
20
85.999999999999972
42
-0.41421356237309087
10
150.00000381469727
20
81.000000000000014
10
-149.99999618530282
20
81
42
-0.41421356237309193
10
-154.99999618530282
20
86.000000000000057
10
-154.99999618530288
20
359.00000000000011
42
-0.41421356237308671
10
-149.99999618530279
20
364.00000000000006
10
150.00000381469721
20
364.00000000000006
42
-0.41421356237310442
0
LWPOLYLINE
5
101
100
AcDbEntity
8
0
100
AcDbPolyline
90
4
70
1
43
0.0
10
-114.99999618530279
20
410.00000000000006
10
-114.99999618530279
20
404.00000000000006
10
-124.99999618530279
20
404.00000000000006
10
-124.99999618530279
20
410.00000000000006
0
CIRCLE
5
102
100
AcDbEntity
8
0
100
AcDbCircle
10
95.000003814697209
20
407
30
-1.0246393969493711e-29
40
1.5499999999999934
210
1.7853638319455972e-48
220
-1.9721522630525295e-31
230
1
0
LWPOLYLINE
5
103
100
AcDbEntity
8
0
100
AcDbPolyline
90
4
70
1
43
0.0
10
-19.999996185302784
20
66.000000000000014
10
-19.999996185302784
20
60
10
-29.999996185302784
20
60
10
-29.999996185302784
20
66.000000000000014
0
LWPOLYLINE
5
104
100
AcDbEntity
8
0
100
AcDbPolyline
90
4
70
1
43
0.0
10
-114.99999618530279
20
66.000000000000014
10
-114.99999618530279
20
60
10
-124.99999618530279
20
60
10
-124.99999618530279
20
66.000000000000014
0
LWPOLYLINE
5
105
100
AcDbEntity
8
0
100
AcDbPolyline
90
4
70
1
43
0.0
10
-64.999996185302791
20
66.000000000000014
10
-64.999996185302791
20
60
10
-74.999996185302791
20
60
10
-74.999996185302791
20
66.000000000000014
0
LWPOLYLINE
5
106
100
AcDbEntity
8
0
100
AcDbPolyline
90
4
70
1
43
0.0
10
30.000003814697216
20
66.000000000000014
10
30.000003814697216
20
60
10
20.000003814697216
20
60
10
20.000003814697216
20
66.000000000000014
0
CIRCLE
5
107
100
AcDbEntity
8
0
100
AcDbCircle
10
95.000003814697209
20
62.999999999999972
30
5.5308241349265255e-30
40
1.5499999999999934
210
1.7853638319455972e-48
220
-1.9721522630525295e-31
230
1
0
LWPOLYLINE
5
108
100
AcDbEntity
8
0
100
AcDbPolyline
90
4
70
1
43
0.0
10
30.000003814697216
20
410.00000000000006
10
30.000003814697216
20
404.00000000000006
10
20.000003814697216
20
404.00000000000006
10
20.000003814697216
20
410.00000000000006
0
CIRCLE
5
109
100
AcDbEntity
8
0
100
AcDbCircle
10
-94.999996185302791
20
407
30
-1.0246393969493711e-29
40
1.5499999999999934
210
1.7853638319455972e-48
220
-1.9721522630525295e-31
230
1
0
LWPOLYLINE
5
110
100
AcDbEntity
8
0
100
AcDbPolyline
90
4
70
1
43
0.0
10
-19.999996185302784
20
410.00000000000006
10
-19.999996185302784
20
404.00000000000006
10
-29.999996185302784
20
404.00000000000006
10
-29.999996185302784
20
410.00000000000006
0
LWPOLYLINE
5
111
100
AcDbEntity
8
0
100
AcDbPolyline
90
4
70
1
43
0.0
10
75.000003814697209
20
410.00000000000006
10
75.000003814697209
20
404.00000000000006
10
65.000003814697209
20
404.00000000000006
10
65.000003814697209
20
410.00000000000006
0
LWPOLYLINE
5
112
100
AcDbEntity
8
0
100
AcDbPolyline
90
4
70
1
43
0.0
10
125.00000381469721
20
66.000000000000014
10
125.00000381469721
20
60
10
115.00000381469721
20
60
10
115.00000381469721
20
66.000000000000014
0
CIRCLE
5
113
100
AcDbEntity
8
0
100
AcDbCircle
10
-94.999996185302791
20
62.999999999999972
30
-1.0246393969493711e-29
40
1.5499999999999934
210
1.7853638319455972e-48
220
-1.9721522630525295e-31
230
1
0
CIRCLE
5
114
100
AcDbEntity
8
0
100
AcDbCircle
10
3.8146972158870085e-06
20
62.999999999999972
30
5.5308241349265255e-30
40
1.5500000000000003
210
1.9259299443872619e-34
220
6.7059145732796815e-60
230
1
0
LWPOLYLINE
5
115
100
AcDbEntity
8
0
100
AcDbPolyline
90
4
70
1
43
0.0
10
75.000003814697209
20
66.000000000000014
10
75.000003814697209
20
60
10
65.000003814697209
20
60
10
65.000003814697209
20
66.000000000000014
0
LWPOLYLINE
5
116
100
AcDbEntity
8
0
100
AcDbPolyline
90
4
70
1
43
0.0
10
125.00000381469721
20
410.00000000000006
10
125.00000381469721
20
404.00000000000006
10
115.00000381469721
20
404.00000000000006
10
115.00000381469721
20
410.00000000000006
0
CIRCLE
5
117
100
AcDbEntity
8
0
100
AcDbCircle
10
3.8146972158870085e-06
20
407
30
-1.0246393969493711e-29
40
1.5500000000000003
210
1.9259299443872619e-34
220
6.7059145732796815e-60
230
1
0
LWPOLYLINE
5
118
100
AcDbEntity
8
0
100
AcDbPolyline
90
4
70
1
43
0.0
10
-74.999996185302791
20
404.00000000000006
10
-74.999996185302791
20
410.00000000000006
10
-64.999996185302791
20
410.00000000000006
10
-64.999996185302791
20
404.00000000000006
0
LWPOLYLINE
5
119
100
AcDbEntity
8
0
100
AcDbPolyline
90
4
70
1
43
0.0
10
191.00000381469724
20
70
10
191.00000381469724
20
60
10
185.00000381469721
20
60
10
185.00000381469721
20
70
0
CIRCLE
5
120
100
AcDbEntity
8
0
100
AcDbCircle
10
188.00000381469721
20
90
30
5.5308241349265255e-30
40
1.5500000000000114
210
1.7853638319455972e-48
220
-1.9721522630525295e-31
230
1
0
LWPOLYLINE
5
121
100
AcDbEntity
8
0
100
AcDbPolyline
90
4
70
1
43
0.0
10
185.00000381469721
20
120
10
191.00000381469724
20
120
10
191.00000381469724
20
110
10
185.00000381469721
20
110
0
CIRCLE
5
122
100
AcDbEntity
8
0
100
AcDbCircle
10
188.00000381469721
20
324.00000000000006
30
-1.0246393969493711e-29
40
1.5500000000000114
210
1.7853638319455972e-48
220
-1.9721522630525295e-31
230
1
0
LWPOLYLINE
5
123
100
AcDbEntity
8
0
100
AcDbPolyline
90
4
70
1
43
0.0
10
191.00000381469724
20
294.00000000000006
10
185.00000381469721
20
294.00000000000006
10
185.00000381469721
20
304.00000000000006
10
191.00000381469724
20
304.00000000000006
0
LWPOLYLINE
5
124
100
AcDbEntity
8
0
100
AcDbPolyline
90
4
70
1
43
0.0
10
185.00000381469721
20
344.00000000000006
10
185.00000381469721
20
354.00000000000006
10
191.00000381469724
20
354.00000000000006
10
191.00000381469724
20
344.00000000000006
0
LWPOLYLINE
5
125
100
AcDbEntity
8
0
100
AcDbPolyline
90
4
70
1
43
0.0
10
185.00000381469721
20
227.00000000000003
10
185.00000381469721
20
237.00000000000003
10
191.00000381469724
20
237.00000000000003
10
191.00000381469724
20
227.00000000000003
0
LWPOLYLINE
5
126
100
AcDbEntity
8
0
100
AcDbPolyline
90
4
70
1
43
0.0
10
191.00000381469724
20
177.00000000000003
10
185.00000381469721
20
177.00000000000003
10
185.00000381469721
20
187.00000000000003
10
191.00000381469724
20
187.00000000000003
0
CIRCLE
5
127
100
AcDbEntity
8
0
100
AcDbCircle
10
188.00000381469721
20
207.00000000000003
30
-1.0246393969493711e-29
40
1.5500000000000114
210
1.7853638319455972e-48
220
-1.9721522630525295e-31
230
1
0
CIRCLE
5
128
100
AcDbEntity
8
0
100
AcDbCircle
10
-187.99999618530279
20
207.00000000000003
30
-1.0246393969493711e-29
40
1.5500000000000114
210
1.7853638319455972e-48
220
-1.9721522630525295e-31
230
1
0
LWPOLYLINE
5
129
100
AcDbEntity
8
0
100
AcDbPolyline
90
4
70
1
43
0.0
10
-184.99999618530279
20
177.00000000000003
10
-190.99999618530279
20
177.00000000000003
10
-190.99999618530279
20
187.00000000000003
10
-184.99999618530279
20
187.00000000000003
0
LWPOLYLINE
5
130
100
AcDbEntity
8
0
100
AcDbPolyline
90
4
70
1
43
0.0
10
-184.99999618530279
20
237.00000000000003
10
-184.99999618530279
20
227.00000000000003
10
-190.99999618530279
20
227.00000000000003
10
-190.99999618530279
20
237.00000000000003
0
LWPOLYLINE
5
131
100
AcDbEntity
8
0
100
AcDbPolyline
90
4
70
1
43
0.0
10
-184.99999618530279
20
354.00000000000006
10
-184.99999618530279
20
344.00000000000006
10
-190.99999618530279
20
344.00000000000006
10
-190.99999618530279
20
354.00000000000006
0
LWPOLYLINE
5
132
100
AcDbEntity
8
0
100
AcDbPolyline
90
4
70
1
43
0.0
10
-184.99999618530279
20
294.00000000000006
10
-190.99999618530279
20
294.00000000000006
10
-190.99999618530279
20
304.00000000000006
10
-184.99999618530279
20
304.00000000000006
0
CIRCLE
5
133
100
AcDbEntity
8
0
100
AcDbCircle
10
-187.99999618530279
20
324.00000000000006
30
-1.0246393969493711e-29
40
1.5500000000000114
210
1.7853638319455972e-48
220
-1.9721522630525295e-31
230
1
0
LWPOLYLINE
5
134
100
AcDbEntity
8
0
100
AcDbPolyline
90
4
70
1
43
0.0
10
-190.99999618530279
20
120
10
-184.99999618530279
20
120
10
-184.99999618530279
20
110
10
-190.99999618530279
20
110
0
CIRCLE
5
135
100
AcDbEntity
8
0
100
AcDbCircle
10
-187.99999618530279
20
90
30
-1.0246393969493711e-29
40
1.5500000000000114
210
1.7853638319455972e-48
220
-1.9721522630525295e-31
230
1
0
LWPOLYLINE
5
136
100
AcDbEntity
8
0
100
AcDbPolyline
90
4
70
1
43
0.0
10
-190.99999618530279
20
60
10
-190.99999618530279
20
70
10
-184.99999618530279
20
70
10
-184.99999618530279
20
60
0
LWPOLYLINE
5
137
100
AcDbEntity
8
0
100
AcDbPolyline
90
12
70
1
43
0.0
10
-157.07106399716827
20
2.2204460492503131e-15
42
0.19891236737965901
10
-153.53553009123553
20
1.4644660940672563
10
-141.46446227937003
20
13.535533905932748
42
-0.19891236737965995
10
-137.92892837343732
20
15.000000000000009
10
137.92893600283173
20
15.000000000000009
42
-0.19891236737965881
10
141.46446990876447
20
13.535533905932741
10
153.53553772062997
20
1.464466094067256
42
0.19891236737965926
10
157.07107162656268
20
1.1102230246251565e-15
10
195.00000381469721
20
-2.1220062995758e-16
10
195.00000381469721
20
414.00000000000006
10
-194.99999618530279
20
414.00000000000006
10
-194.99999618530279
20
0
0
CIRCLE
5
138
100
AcDbEntity
8
0
100
AcDbCircle
10
-174.19999620833838
20
382.75000000000006
30
0
40
1.6000000000000003
210
0
220
0
230
1
0
LINE
5
139
100
AcDbEntity
8
0
100
AcDbLine
10
-181.44177312364221
20
375.25000000000006
30
0
11
-160.00000003132843
21
375.25000000000006
31
0
0
CIRCLE
5
140
100
AcDbEntity
8
0
100
AcDbCircle
10
-174.19999620833838
20
367.75000000000006
30
0
40
1.6000000000000003
210
0
220
0
230
1
0
LINE
5
141
100
AcDbEntity
8
0
100
AcDbLine
10
0
20
0
30
0
11
3.8146972158870085e-06
21
414.00000000000006
31
-5.1293607816700649e-30
0
CIRCLE
5
142
100
AcDbEntity
8
0
100
AcDbCircle
10
174.20000298541515
20
367.74999678975735
30
0
40
1.6000000000000003
210
0
220
0
230
1
0
CIRCLE
5
143
100
AcDbEntity
8
0
100
AcDbCircle
10
174.20000326184251
20
382.74999678975735
30
0
40
1.6000000000000003
210
0
220
0
230
1
0
CIRCLE
5
144
100
AcDbEntity
8
0
100
AcDbCircle
10
-164.99999618530279
20
357.49999999999932
30
-7.2991159683141846e-16
40
1.7000000000000002
210
2.619264375469969e-48
220
9.1200426048334615e-74
230
1
0
CIRCLE
5
145
100
AcDbEntity
8
0
100
AcDbCircle
10
165.00000381469721
20
357.4999999999992
30
-3.7212576163491972e-16
40
1.7000000000000002
210
7.3185337886751678e-33
220
2.5484385875617849e-58
230
1
0
CIRCLE
5
146
100
AcDbEntity
8
0
100
AcDbCircle
10
-134.99999618530279
20
35.000000000000007
30
0
40
1.5500000000000003
210
0
220
0
230
1
0
CIRCLE
5
147
100
AcDbEntity
8
0
100
AcDbCircle
10
-52.999996185302777
20
35.000000000000007
30
0
40
1.5500000000000003
210
0
220
0
230
1
0
CIRCLE
5
148
100
AcDbEntity
8
0
100
AcDbCircle
10
-175.99999618530279
20
10
30
0
40
1.5500000000000003
210
0
220
0
230
1
0
CIRCLE
5
149
100
AcDbEntity
8
0
100
AcDbCircle
10
175.99999636958768
20
9.9999967565860111
30
0
40
1.5500000000000003
210
0
220
0
230
1
0
ENDSEC
0
SECTION
2
OBJECTS
0
DICTIONARY
5
C
100
AcDbDictionary
3
ACAD_GROUP
350
D
3
ACAD_MLINESTYLE
350
17
0
DICTIONARY
5
D
100
AcDbDictionary
0
DICTIONARY
5
1A
330
C
100
AcDbDictionary
0
DICTIONARY
5
17
100
AcDbDictionary
0
ENDSEC
0
EOF
