0
SECTION
2
HEADER
9
$INSUNITS
70
4
9
$ACADVER
1
AC1014
9
$HANDSEED
5
FFFF
0
ENDSEC
0
SECTION
2
TABLES
0
TABLE
2
VPORT
5
8
100
AcDbSymbolTable
0
ENDTAB
0
TABLE
2
LTYPE
5
5
100
AcDbSymbolTable
0
LTYPE
5
14
100
AcDbSymbolTableRecord
100
AcDbLinetypeTableRecord
2
BYBLOCK
70
0
0
LTYPE
5
15
100
AcDbSymbolTableRecord
100
AcDbLinetypeTableRecord
2
BYLAYER
70
0
0
ENDTAB
0
TABLE
2
LAYER
5
2
100
AcDbSymbolTable
70
2
0
LAYER
5
50
100
AcDbSymbolTableRecord
100
AcDbLayerTableRecord
2
0
70
0
6
CONTINUOUS
0
ENDTAB
0
TABLE
2
STYLE
5
3
100
AcDbSymbolTable
70
1
0
STYLE
5
11
100
AcDbSymbolTableRecord
100
AcDbTextStyleTableRecord
2
STANDARD
70
0
0
ENDTAB
0
TABLE
2
VIEW
5
6
100
AcDbSymbolTable
70
0
0
ENDTAB
0
TABLE
2
UCS
5
7
100
AcDbSymbolTable
70
0
0
ENDTAB
0
TABLE
2
APPID
5
9
100
AcDbSymbolTable
70
2
0
APPID
5
12
100
AcDbSymbolTableRecord
100
AcDbRegAppTableRecord
2
ACAD
70
0
0
ENDTAB
0
TABLE
2
DIMSTYLE
5
A
100
AcDbSymbolTable
70
1
0
ENDTAB
0
TABLE
2
BLOCK_RECORD
5
1
100
AcDbSymbolTable
70
1
0
BLOCK_RECORD
5
1F
100
AcDbSymbolTableRecord
100
AcDbBlockTableRecord
2
*MODEL_SPACE
0
BLOCK_RECORD
5
1B
100
AcDbSymbolTableRecord
100
AcDbBlockTableRecord
2
*PAPER_SPACE
0
ENDTAB
0
ENDSEC
0
SECTION
2
BLOCKS
0
BLOCK
5
20
100
AcDbEntity
100
AcDbBlockBegin
2
*MODEL_SPACE
0
ENDBLK
5
21
100
AcDbEntity
100
AcDbBlockEnd
0
BLOCK
5
1C
100
AcDbEntity
100
AcDbBlockBegin
2
*PAPER_SPACE
0
ENDBLK
5
1D
100
AcDbEntity
100
AcDbBlockEnd
0
ENDSEC
0
SECTION
2
ENTITIES
0
LWPOLYLINE
5
100
100
AcDbEntity
8
0
100
AcDbPolyline
90
8
70
1
43
0.0
10
-135.00000000000537
20
86.000000000000028
10
-135.00000000000534
20
359.00000000000006
42
-0.41421356237310125
10
-130.00000000000537
20
364.00000000000006
10
150.00000000000125
20
364.00000000000011
42
-0.41421356237309193
10
155.00000000000125
20
359.00000000000006
10
155.00000000000125
20
86.000000000000014
42
-0.41421356237309293
10
150.00000000000125
20
81.000000000000014
10
-130.00000000000537
20
81.000000000000014
42
-0.41421356237309193
0
CIRCLE
5
101
100
AcDbEntity
8
0
100
AcDbCircle
10
94.999999999999417
20
62.999999999999972
30
0
40
1.5499999999999934
210
0
220
-0
230
1
0
LWPOLYLINE
5
102
100
AcDbEntity
8
0
100
AcDbPolyline
90
4
70
1
43
0.0
10
-115.00000000000007
20
410.00000000000006
10
-115.00000000000007
20
404.00000000000006
10
-125.00000000000009
20
404.00000000000006
10
-125.00000000000009
20
410.00000000000006
0
LWPOLYLINE
5
103
100
AcDbEntity
8
0
100
AcDbPolyline
90
4
70
1
43
0.0
10
-75.000000000001123
20
403.99999999999983
10
-75.000000000001052
20
409.99999999999989
10
-65.000000000001023
20
409.99999999999972
10
-65.000000000001108
20
403.99999999999972
0
LWPOLYLINE
5
104
100
AcDbEntity
8
0
100
AcDbPolyline
90
4
70
1
43
0.0
10
114.99999999999888
20
403.99999999999983
10
114.99999999999895
20
409.99999999999989
10
124.99999999999898
20
409.99999999999972
10
124.99999999999889
20
403.99999999999972
0
CIRCLE
5
105
100
AcDbEntity
8
0
100
AcDbCircle
10
-95.000000000000583
20
62.999999999999972
30
0
40
1.5499999999999934
210
0
220
-0
230
1
0
CIRCLE
5
106
100
AcDbEntity
8
0
100
AcDbCircle
10
94.999999999999417
20
407
30
0
40
1.5499999999999934
210
0
220
-0
230
1
0
CIRCLE
5
107
100
AcDbEntity
8
0
100
AcDbCircle
10
-5.8619775700208265e-13
20
407
30
0
40
1.5500000000000003
210
0
220
-0
230
1
0
LWPOLYLINE
5
108
100
AcDbEntity
8
0
100
AcDbPolyline
90
4
70
1
43
0.0
10
64.999999999999915
20
60
10
64.999999999999915
20
66.000000000000014
10
74.999999999999929
20
66.000000000000014
10
74.999999999999929
20
60
0
LWPOLYLINE
5
109
100
AcDbEntity
8
0
100
AcDbPolyline
90
4
70
1
43
0.0
10
114.99999999999888
20
59.999999999999787
10
114.99999999999895
20
65.999999999999801
10
124.99999999999898
20
65.999999999999659
10
124.99999999999889
20
59.999999999999645
0
LWPOLYLINE
5
110
100
AcDbEntity
8
0
100
AcDbPolyline
90
4
70
1
43
0.0
10
19.999999999998881
20
59.999999999999787
10
19.999999999998952
20
65.999999999999801
10
29.99999999999897
20
65.999999999999659
10
29.999999999998899
20
59.999999999999645
0
LWPOLYLINE
5
111
100
AcDbEntity
8
0
100
AcDbPolyline
90
4
70
1
43
0.0
10
-30.000000000000089
20
404.00000000000006
10
-30.000000000000089
20
410.00000000000006
10
-20.000000000000071
20
410.00000000000006
10
-20.000000000000071
20
404.00000000000006
0
CIRCLE
5
112
100
AcDbEntity
8
0
100
AcDbCircle
10
-95.000000000000583
20
407
30
0
40
1.5499999999999934
210
0
220
-0
230
1
0
LWPOLYLINE
5
113
100
AcDbEntity
8
0
100
AcDbPolyline
90
4
70
1
43
0.0
10
-75.000000000001123
20
59.999999999999787
10
-75.000000000001052
20
65.999999999999801
10
-65.000000000001023
20
65.999999999999659
10
-65.000000000001108
20
59.999999999999645
0
LWPOLYLINE
5
114
100
AcDbEntity
8
0
100
AcDbPolyline
90
4
70
1
43
0.0
10
-125.00000000000009
20
60
10
-125.00000000000009
20
66.000000000000014
10
-115.00000000000007
20
66.000000000000014
10
-115.00000000000007
20
60
0
LWPOLYLINE
5
115
100
AcDbEntity
8
0
100
AcDbPolyline
90
4
70
1
43
0.0
10
64.999999999999915
20
404.00000000000006
10
64.999999999999915
20
410.00000000000006
10
74.999999999999929
20
410.00000000000006
10
74.999999999999929
20
404.00000000000006
0
LWPOLYLINE
5
116
100
AcDbEntity
8
0
100
AcDbPolyline
90
4
70
1
43
0.0
10
19.999999999998881
20
403.99999999999983
10
19.999999999998952
20
409.99999999999989
10
29.99999999999897
20
409.99999999999972
10
29.999999999998899
20
403.99999999999972
0
CIRCLE
5
117
100
AcDbEntity
8
0
100
AcDbCircle
10
-5.8619775700208265e-13
20
62.999999999999972
30
0
40
1.5500000000000003
210
0
220
-0
230
1
0
LWPOLYLINE
5
118
100
AcDbEntity
8
0
100
AcDbPolyline
90
4
70
1
43
0.0
10
-30.000000000000089
20
60
10
-30.000000000000089
20
66.000000000000014
10
-20.000000000000071
20
66.000000000000014
10
-20.000000000000071
20
60
0
LWPOLYLINE
5
119
100
AcDbEntity
8
0
100
AcDbPolyline
90
132
70
1
43
0.0
10
-153.53553390593274
20
1.464466094067276
10
-141.46446609406732
20
13.535533905932773
42
-0.198912367379661
10
-137.92893218813458
20
15.000000000000021
10
137.92893218813458
20
15.000000000000021
42
-0.19891236737965801
10
141.46446609406729
20
13.53553390593277
10
153.53553390593274
20
1.464466094067276
42
0.19891236737965814
10
157.07106781186548
20
2.248201624865942e-14
10
185
20
2.5659373890550365e-14
10
185
20
60.000000000000028
10
191
20
60.000000000000028
10
191
20
70.000000000000028
10
185
20
70.000000000000028
10
185
20
88.450000000009936
10
178.39999999999998
20
88.450000000009936
10
178.40000000000001
20
87.250000000004832
10
176
20
87.249999999995183
10
176
20
88.450000000000259
10
173.19999999999999
20
88.450000000000259
10
173.20000000000007
20
91.550000000000239
10
176.00000000000009
20
91.550000000000139
10
176.00000000000011
20
92.750000000005201
10
178.40000000000009
20
92.749999999995453
10
178.40000000000003
20
91.549999999990334
10
185.00000000000006
20
91.54999999999005
10
185.00000000000082
20
109.99999999999997
10
191.00000000000082
20
109.99999999999973
10
191.00000000000125
20
119.99999999999972
10
185.00000000000125
20
119.99999999999999
10
185
20
177.00000000000006
10
191
20
177.00000000000006
10
191
20
187.00000000000006
10
185
20
187.00000000000006
10
185
20
205.45000000000996
10
178.39999999999998
20
205.45000000000999
10
178.40000000000001
20
204.25000000000489
10
176
20
204.24999999999523
10
176
20
205.4500000000003
10
173.19999999999999
20
205.4500000000003
10
173.20000000000007
20
208.55000000000024
10
176.00000000000009
20
208.55000000000018
10
176.00000000000011
20
209.75000000000529
10
178.40000000000009
20
209.74999999999545
10
178.40000000000003
20
208.54999999999035
10
185.00000000000006
20
208.54999999999006
10
185.00000000000082
20
227
10
191.00000000000082
20
226.99999999999974
10
191.00000000000125
20
236.99999999999974
10
185.00000000000125
20
237.00000000000003
10
185
20
294.00000000000011
10
191
20
294.00000000000011
10
191
20
304.00000000000011
10
185
20
304.00000000000011
10
185
20
322.45000000000999
10
178.39999999999998
20
322.45000000000999
10
178.40000000000001
20
321.25000000000483
10
176
20
321.24999999999523
10
176
20
322.45000000000033
10
173.19999999999999
20
322.45000000000033
10
173.20000000000007
20
325.5500000000003
10
176.00000000000009
20
325.55000000000013
10
176.00000000000011
20
326.75000000000529
10
178.40000000000009
20
326.74999999999557
10
178.40000000000003
20
325.54999999999035
10
185.00000000000006
20
325.54999999999006
10
185.00000000000082
20
344.00000000000006
10
191.00000000000082
20
343.99999999999977
10
191.00000000000125
20
353.99999999999977
10
185.00000000000125
20
354.00000000000006
10
185
20
414.00000000000006
10
-185
20
414.00000000000006
10
-185.00000000000125
20
354.00000000000006
10
-191.00000000000125
20
353.99999999999977
10
-191.00000000000082
20
343.99999999999977
10
-185.00000000000082
20
344.00000000000006
10
-185.00000000000006
20
325.54999999999006
10
-178.40000000000003
20
325.54999999999035
10
-178.40000000000009
20
326.74999999999557
10
-176.00000000000011
20
326.75000000000529
10
-176.00000000000009
20
325.55000000000013
10
-173.20000000000007
20
325.5500000000003
10
-173.19999999999999
20
322.45000000000033
10
-176
20
322.45000000000033
10
-176
20
321.24999999999523
10
-178.40000000000001
20
321.25000000000483
10
-178.39999999999998
20
322.45000000000999
10
-185
20
322.45000000000999
10
-185
20
304.00000000000011
10
-191
20
304.00000000000011
10
-191
20
294.00000000000011
10
-185
20
294.00000000000011
10
-185.00000000000125
20
237.00000000000003
10
-191.00000000000125
20
236.99999999999974
10
-191.00000000000082
20
226.99999999999974
10
-185.00000000000082
20
227
10
-185.00000000000006
20
208.54999999999006
10
-178.40000000000003
20
208.54999999999035
10
-178.40000000000009
20
209.74999999999545
10
-176.00000000000011
20
209.75000000000529
10
-176.00000000000009
20
208.55000000000018
10
-173.20000000000007
20
208.55000000000024
10
-173.19999999999999
20
205.4500000000003
10
-176
20
205.4500000000003
10
-176
20
204.24999999999523
10
-178.40000000000001
20
204.25000000000489
10
-178.39999999999998
20
205.45000000000999
10
-185
20
205.45000000000996
10
-185
20
187.00000000000006
10
-191
20
187.00000000000006
10
-191
20
177.00000000000006
10
-185
20
177.00000000000006
10
-185.00000000000125
20
119.99999999999999
10
-191.00000000000125
20
119.99999999999972
10
-191.00000000000082
20
109.99999999999973
10
-185.00000000000082
20
109.99999999999997
10
-185.00000000000006
20
91.54999999999005
10
-178.40000000000003
20
91.549999999990334
10
-178.40000000000009
20
92.749999999995453
10
-176.00000000000011
20
92.750000000005201
10
-176.00000000000009
20
91.550000000000139
10
-173.20000000000007
20
91.550000000000239
10
-173.19999999999999
20
88.450000000000259
10
-176
20
88.450000000000259
10
-176
20
87.249999999995183
10
-178.40000000000001
20
87.250000000004832
10
-178.39999999999998
20
88.450000000009936
10
-185
20
88.450000000009936
10
-185
20
70.000000000000028
10
-191
20
70.000000000000028
10
-191
20
60.000000000000028
10
-185
20
60.000000000000028
10
-185
20
2.6645352591003757e-14
10
-157.07106781186548
20
2.2204460492503131e-14
42
0.19891236737965801
0
CIRCLE
5
120
100
AcDbEntity
8
0
100
AcDbCircle
10
165.00000000000136
20
357.50000000000011
30
0
40
1.7000000000000002
210
0
220
-0
230
1
0
CIRCLE
5
121
100
AcDbEntity
8
0
100
AcDbCircle
10
-170
20
10
30
0
40
1.5500000000000003
210
0
220
0
230
1
0
CIRCLE
5
122
100
AcDbEntity
8
0
100
AcDbCircle
10
170
20
10
30
0
40
1.5500000000000003
210
0
220
0
230
1
0
ENDSEC
0
SECTION
2
OBJECTS
0
DICTIONARY
5
C
100
AcDbDictionary
3
ACAD_GROUP
350
D
3
ACAD_MLINESTYLE
350
17
0
DICTIONARY
5
D
100
AcDbDictionary
0
DICTIONARY
5
1A
330
C
100
AcDbDictionary
0
DICTIONARY
5
17
100
AcDbDictionary
0
ENDSEC
0
EOF
