0
SECTION
2
HEADER
9
$INSUNITS
70
4
9
$ACADVER
1
AC1014
9
$HANDSEED
5
FFFF
0
ENDSEC
0
SECTION
2
TABLES
0
TABLE
2
VPORT
5
8
100
AcDbSymbolTable
0
ENDTAB
0
TABLE
2
LTYPE
5
5
100
AcDbSymbolTable
0
LTYPE
5
14
100
AcDbSymbolTableRecord
100
AcDbLinetypeTableRecord
2
BYBLOCK
70
0
0
LTYPE
5
15
100
AcDbSymbolTableRecord
100
AcDbLinetypeTableRecord
2
BYLAYER
70
0
0
ENDTAB
0
TABLE
2
LAYER
5
2
100
AcDbSymbolTable
70
2
0
LAYER
5
50
100
AcDbSymbolTableRecord
100
AcDbLayerTableRecord
2
0
70
0
6
CONTINUOUS
0
ENDTAB
0
TABLE
2
STYLE
5
3
100
AcDbSymbolTable
70
1
0
STYLE
5
11
100
AcDbSymbolTableRecord
100
AcDbTextStyleTableRecord
2
STANDARD
70
0
0
ENDTAB
0
TABLE
2
VIEW
5
6
100
AcDbSymbolTable
70
0
0
ENDTAB
0
TABLE
2
UCS
5
7
100
AcDbSymbolTable
70
0
0
ENDTAB
0
TABLE
2
APPID
5
9
100
AcDbSymbolTable
70
2
0
APPID
5
12
100
AcDbSymbolTableRecord
100
AcDbRegAppTableRecord
2
ACAD
70
0
0
ENDTAB
0
TABLE
2
DIMSTYLE
5
A
100
AcDbSymbolTable
70
1
0
ENDTAB
0
TABLE
2
BLOCK_RECORD
5
1
100
AcDbSymbolTable
70
1
0
BLOCK_RECORD
5
1F
100
AcDbSymbolTableRecord
100
AcDbBlockTableRecord
2
*MODEL_SPACE
0
BLOCK_RECORD
5
1B
100
AcDbSymbolTableRecord
100
AcDbBlockTableRecord
2
*PAPER_SPACE
0
ENDTAB
0
ENDSEC
0
SECTION
2
BLOCKS
0
BLOCK
5
20
100
AcDbEntity
100
AcDbBlockBegin
2
*MODEL_SPACE
0
ENDBLK
5
21
100
AcDbEntity
100
AcDbBlockEnd
0
BLOCK
5
1C
100
AcDbEntity
100
AcDbBlockBegin
2
*PAPER_SPACE
0
ENDBLK
5
1D
100
AcDbEntity
100
AcDbBlockEnd
0
ENDSEC
0
SECTION
2
ENTITIES
0
LWPOLYLINE
5
100
100
AcDbEntity
8
0
100
AcDbPolyline
90
31
70
1
43
0.0
10
34.999969482426664
20
45.000000000000597
42
0.41421356237309503
10
33.999969482426664
20
44.000000000000597
10
33.999969482426664
20
35.000000000000568
10
27.999969482426664
20
35.000000000000568
10
27.999969482426664
20
45.000000000000568
10
9.999969482426657
20
45.000000000000604
10
9.9999694824266534
20
50.000000000000711
42
0.4142135623730952
10
4.9999694824266498
20
55.000000000000711
10
-12.00003051757335
20
55.000000000000711
10
-12.000030517573329
20
29.000000000000597
10
-6.0000305175733271
20
29.000000000000597
10
-6.0000305175733253
20
35.000000000000597
10
-3.0517573322841329e-05
20
35.000000000000597
10
-3.0517573321731106e-05
20
19.000000000000597
10
-12.000030517573324
20
19.000000000000597
10
-12.000030517573318
20
1.0000000000006004
10
-6.0000305175733182
20
1.0000000000005991
10
-6.000030517573343
20
5.0000000000005995
10
-3.0517573321731106e-05
20
5.0000000000005995
10
-3.0517573321731106e-05
20
7.1054273576010019e-13
10
104.12756084606102
20
24.103609111953116
42
0.34905234792131506
10
107.99996948242665
20
28.974803802853621
10
107.99996948242662
20
50.000000000000725
42
0.41421356237309348
10
102.99996948242662
20
55.000000000000703
10
99.999969482426607
20
55.000000000000711
10
99.999969482426664
20
45.000000000000711
10
80.99996948242665
20
45.000000000000696
42
0.41421356237309764
10
79.999969482426664
20
44.000000000000696
10
79.999969482426664
20
35.00000000000059
10
73.999969482426664
20
35.000000000000583
10
73.999969482426664
20
45.000000000000583
0
LWPOLYLINE
5
101
100
AcDbEntity
8
0
100
AcDbPolyline
90
6
70
1
43
0.0
10
11.999969482426653
20
27.000000000000597
42
0.41421356237309437
10
9.9999694824266587
20
25.000000000000597
10
9.9999694824266605
20
13.042200198299083
42
0.48252215941189514
10
12.451006027880398
20
11.093722321938881
10
64.108701171232241
20
23.05152212364041
42
0.89227267074109962
10
63.657664625778509
20
27.000000000000615
0
ENDSEC
0
SECTION
2
OBJECTS
0
DICTIONARY
5
C
100
AcDbDictionary
3
ACAD_GROUP
350
D
3
ACAD_MLINESTYLE
350
17
0
DICTIONARY
5
D
100
AcDbDictionary
0
DICTIONARY
5
1A
330
C
100
AcDbDictionary
0
DICTIONARY
5
17
100
AcDbDictionary
0
ENDSEC
0
EOF
