0
SECTION
2
HEADER
9
$INSUNITS
70
4
9
$ACADVER
1
AC1014
9
$HANDSEED
5
FFFF
0
ENDSEC
0
SECTION
2
TABLES
0
TABLE
2
VPORT
5
8
100
AcDbSymbolTable
0
ENDTAB
0
TABLE
2
LTYPE
5
5
100
AcDbSymbolTable
0
LTYPE
5
14
100
AcDbSymbolTableRecord
100
AcDbLinetypeTableRecord
2
BYBLOCK
70
0
0
LTYPE
5
15
100
AcDbSymbolTableRecord
100
AcDbLinetypeTableRecord
2
BYLAYER
70
0
0
ENDTAB
0
TABLE
2
LAYER
5
2
100
AcDbSymbolTable
70
2
0
LAYER
5
50
100
AcDbSymbolTableRecord
100
AcDbLayerTableRecord
2
0
70
0
6
CONTINUOUS
0
ENDTAB
0
TABLE
2
STYLE
5
3
100
AcDbSymbolTable
70
1
0
STYLE
5
11
100
AcDbSymbolTableRecord
100
AcDbTextStyleTableRecord
2
STANDARD
70
0
0
ENDTAB
0
TABLE
2
VIEW
5
6
100
AcDbSymbolTable
70
0
0
ENDTAB
0
TABLE
2
UCS
5
7
100
AcDbSymbolTable
70
0
0
ENDTAB
0
TABLE
2
APPID
5
9
100
AcDbSymbolTable
70
2
0
APPID
5
12
100
AcDbSymbolTableRecord
100
AcDbRegAppTableRecord
2
ACAD
70
0
0
ENDTAB
0
TABLE
2
DIMSTYLE
5
A
100
AcDbSymbolTable
70
1
0
ENDTAB
0
TABLE
2
BLOCK_RECORD
5
1
100
AcDbSymbolTable
70
1
0
BLOCK_RECORD
5
1F
100
AcDbSymbolTableRecord
100
AcDbBlockTableRecord
2
*MODEL_SPACE
0
BLOCK_RECORD
5
1B
100
AcDbSymbolTableRecord
100
AcDbBlockTableRecord
2
*PAPER_SPACE
0
ENDTAB
0
ENDSEC
0
SECTION
2
BLOCKS
0
BLOCK
5
20
100
AcDbEntity
100
AcDbBlockBegin
2
*MODEL_SPACE
0
ENDBLK
5
21
100
AcDbEntity
100
AcDbBlockEnd
0
BLOCK
5
1C
100
AcDbEntity
100
AcDbBlockBegin
2
*PAPER_SPACE
0
ENDBLK
5
1D
100
AcDbEntity
100
AcDbBlockEnd
0
ENDSEC
0
SECTION
2
ENTITIES
0
CIRCLE
5
100
100
AcDbEntity
8
0
100
AcDbCircle
10
79.999999999999972
20
-159.99999999999989
30
0
40
5.9999999999999964
210
0
220
-0
230
1
0
CIRCLE
5
101
100
AcDbEntity
8
0
100
AcDbCircle
10
-80.000000000000028
20
-159.99999999999989
30
0
40
5.9999999999999964
210
0
220
-0
230
1
0
CIRCLE
5
102
100
AcDbEntity
8
0
100
AcDbCircle
10
-175.5
20
-144.50000000000756
30
0
40
1.5500000000000114
210
0
220
-0
230
1
0
CIRCLE
5
103
100
AcDbEntity
8
0
100
AcDbCircle
10
-167.19999999999999
20
47.5
30
0
40
1.5500000000000114
210
0
220
-0
230
1
0
CIRCLE
5
104
100
AcDbEntity
8
0
100
AcDbCircle
10
167.19999999999999
20
97.5
30
0
40
1.5500000000000114
210
0
220
-0
230
1
0
CIRCLE
5
105
100
AcDbEntity
8
0
100
AcDbCircle
10
167.19999999999999
20
-102.5
30
0
40
1.5500000000000114
210
0
220
-0
230
1
0
CIRCLE
5
106
100
AcDbEntity
8
0
100
AcDbCircle
10
144.5
20
-175.50000000000756
30
0
40
1.5499999999999934
210
0
220
-0
230
1
0
CIRCLE
5
107
100
AcDbEntity
8
0
100
AcDbCircle
10
144.5
20
-144.50000000000756
30
0
40
1.5499999999999934
210
0
220
-0
230
1
0
CIRCLE
5
108
100
AcDbEntity
8
0
100
AcDbCircle
10
167.19999999999999
20
47.5
30
0
40
1.5500000000000114
210
0
220
-0
230
1
0
CIRCLE
5
109
100
AcDbEntity
8
0
100
AcDbCircle
10
-167.19999999999999
20
97.5
30
0
40
1.5500000000000114
210
0
220
-0
230
1
0
CIRCLE
5
110
100
AcDbEntity
8
0
100
AcDbCircle
10
-167.19999999999999
20
-102.5
30
0
40
1.5500000000000114
210
0
220
-0
230
1
0
CIRCLE
5
111
100
AcDbEntity
8
0
100
AcDbCircle
10
-144.5
20
-175.50000000000756
30
0
40
1.5499999999999934
210
0
220
-0
230
1
0
CIRCLE
5
112
100
AcDbEntity
8
0
100
AcDbCircle
10
-3.5527136788005009e-14
20
-159.99999999999989
30
0
40
6.0000000000000009
210
0
220
-0
230
1
0
CIRCLE
5
113
100
AcDbEntity
8
0
100
AcDbCircle
10
92.499999999999972
20
-159.99999999999989
30
0
40
1.6000000000000014
210
0
220
-0
230
1
0
CIRCLE
5
114
100
AcDbEntity
8
0
100
AcDbCircle
10
-92.500000000000028
20
-159.99999999999989
30
0
40
1.6000000000000014
210
0
220
-0
230
1
0
CIRCLE
5
115
100
AcDbEntity
8
0
100
AcDbCircle
10
-144.5
20
-144.50000000000756
30
0
40
1.5499999999999934
210
0
220
-0
230
1
0
CIRCLE
5
116
100
AcDbEntity
8
0
100
AcDbCircle
10
-167.19999999999999
20
-2.5
30
0
40
1.5500000000000114
210
0
220
-0
230
1
0
CIRCLE
5
117
100
AcDbEntity
8
0
100
AcDbCircle
10
167.19999999999999
20
147.5
30
0
40
1.5500000000000114
210
0
220
-0
230
1
0
CIRCLE
5
118
100
AcDbEntity
8
0
100
AcDbCircle
10
167.19999999999999
20
-52.5
30
0
40
1.5500000000000114
210
0
220
-0
230
1
0
CIRCLE
5
119
100
AcDbEntity
8
0
100
AcDbCircle
10
175.50000000000006
20
-175.50000000000756
30
0
40
1.5500000000000114
210
0
220
-0
230
1
0
CIRCLE
5
120
100
AcDbEntity
8
0
100
AcDbCircle
10
175.5
20
-144.50000000000756
30
0
40
1.5500000000000114
210
0
220
-0
230
1
0
CIRCLE
5
121
100
AcDbEntity
8
0
100
AcDbCircle
10
167.19999999999999
20
-2.5
30
0
40
1.5500000000000114
210
0
220
-0
230
1
0
CIRCLE
5
122
100
AcDbEntity
8
0
100
AcDbCircle
10
-167.19999999999999
20
147.5
30
0
40
1.5500000000000114
210
0
220
-0
230
1
0
CIRCLE
5
123
100
AcDbEntity
8
0
100
AcDbCircle
10
-167.19999999999999
20
-52.5
30
0
40
1.5500000000000114
210
0
220
-0
230
1
0
CIRCLE
5
124
100
AcDbEntity
8
0
100
AcDbCircle
10
-175.50000000000006
20
-175.50000000000756
30
0
40
1.5500000000000114
210
0
220
-0
230
1
0
CIRCLE
5
125
100
AcDbEntity
8
0
100
AcDbCircle
10
-67.500000000000014
20
-159.99999999999989
30
0
40
1.6000000000000014
210
0
220
-0
230
1
0
CIRCLE
5
126
100
AcDbEntity
8
0
100
AcDbCircle
10
67.499999999999943
20
-159.99999999999989
30
0
40
1.6000000000000014
210
0
220
-0
230
1
0
LWPOLYLINE
5
127
100
AcDbEntity
8
0
100
AcDbPolyline
90
8
70
1
43
0.0
10
154.99999999999997
20
158.00000000000003
10
154.99999999999997
20
-130.00000000000009
42
-0.41421356237309193
10
149.99999999999997
20
-135.00000000000006
10
-149.99999999999966
20
-135.00000000000006
42
-0.41421356237309609
10
-154.99999999999969
20
-130.00000000000003
10
-154.99999999999969
20
158.00000000000006
42
-0.41421356237309087
10
-149.99999999999969
20
163.00000000000006
10
149.99999999999997
20
163.00000000000006
42
-0.41421356237309398
0
LWPOLYLINE
5
128
100
AcDbEntity
8
0
100
AcDbPolyline
90
244
70
1
43
0.0
10
-185
20
-29.999999999999929
10
-185
20
-64.999999999999986
10
-191
20
-64.999999999999986
10
-191
20
-74.999999999999986
10
-184.99999999999997
20
-74.999999999999972
10
-185
20
-93.449999999999974
10
-178.39999999999992
20
-93.449999999999932
10
-178.39999999999992
20
-92.249999999999872
10
-175.99999999999994
20
-92.25
10
-176
20
-93.45000000000006
10
-173.19999999999999
20
-93.45000000000006
10
-173.19999999999999
20
-96.549999999999727
10
-176
20
-96.54999999999967
10
-175.99999999999991
20
-97.750000000000114
10
-178.39999999999989
20
-97.749999999999915
10
-178.39999999999992
20
-96.549999999999571
10
-185
20
-96.54999999999994
10
-184.99999999999972
20
-114.99999999999994
10
-190.99999999999977
20
-114.99999999999991
10
-190.99999999999963
20
-124.99999999999994
10
-184.99999999999969
20
-124.99999999999997
10
-184.99999999999969
20
-184.99999999999997
10
-125
20
-184.99999999999957
10
-125
20
-190.99999999999963
10
-114.99999999999994
20
-190.9999999999998
10
-114.99999999999994
20
-184.99999999999977
10
-96.549999999999997
20
-185.00000000000006
10
-96.549999999999613
20
-178.40000000000003
10
-97.749999999999986
20
-178.39999999999998
10
-97.750000000000171
20
-176
10
-96.549999999999741
20
-176.00000000000009
10
-96.549999999999741
20
-173.2000000000001
10
-93.450000000000117
20
-173.20000000000007
10
-93.450000000000102
20
-176.00000000000011
10
-92.250000000000057
20
-176
10
-92.249999999999929
20
-178.40000000000003
10
-93.449999999999989
20
-178.40000000000001
10
-93.449999999999989
20
-185.00000000000006
10
-75
20
-184.99999999999997
10
-75.000000000000014
20
-191.00000000000006
10
-65
20
-191
10
-65.000000000000014
20
-185.00000000000003
10
-30
20
-184.99999999999957
10
-30
20
-190.99999999999963
10
-19.999999999999964
20
-190.9999999999998
10
-19.999999999999929
20
-184.99999999999977
10
-1.5500000000000114
20
-185.00000000000006
10
-1.5499999999996206
20
-178.40000000000003
10
-2.7499999999999858
20
-178.39999999999998
10
-2.7500000000001634
20
-176
10
-1.5499999999997272
20
-176.00000000000009
10
-1.5499999999997627
20
-173.2000000000001
10
1.5499999999998693
20
-173.20000000000007
10
1.5499999999999048
20
-176.00000000000011
10
2.7499999999999503
20
-176
10
2.7500000000000924
20
-178.40000000000003
10
1.5500000000000114
20
-178.40000000000001
10
1.5500000000000114
20
-185.00000000000006
10
20
20
-184.99999999999997
10
20
20
-191.00000000000006
10
30
20
-191
10
30
20
-185
10
65
20
-184.99999999999957
10
65
20
-190.99999999999963
10
75.000000000000028
20
-190.9999999999998
10
75.000000000000071
20
-184.99999999999977
10
93.449999999999989
20
-185.00000000000006
10
93.450000000000387
20
-178.40000000000003
10
92.250000000000014
20
-178.39999999999998
10
92.249999999999829
20
-176
10
93.450000000000273
20
-176.00000000000009
10
93.450000000000244
20
-173.2000000000001
10
96.549999999999869
20
-173.20000000000007
10
96.549999999999898
20
-176.00000000000011
10
97.749999999999943
20
-176
10
97.750000000000057
20
-178.40000000000003
10
96.550000000000011
20
-178.40000000000001
10
96.550000000000011
20
-185.00000000000006
10
115
20
-184.99999999999997
10
115
20
-191.00000000000006
10
125
20
-191
10
125
20
-185.00000000000003
10
185
20
-185
10
184.99999999999966
20
-124.99999999999994
10
190.99999999999966
20
-124.99999999999994
10
190.9999999999998
20
-114.99999999999994
10
184.99999999999972
20
-114.99999999999994
10
185
20
-96.549999999999955
10
178.39999999999989
20
-96.549999999999571
10
178.39999999999989
20
-97.749999999999915
10
175.99999999999994
20
-97.750000000000114
10
176
20
-96.54999999999967
10
173.19999999999999
20
-96.549999999999713
10
173.19999999999999
20
-93.45000000000006
10
176
20
-93.45000000000006
10
175.99999999999994
20
-92.25
10
178.39999999999989
20
-92.249999999999872
10
178.39999999999989
20
-93.449999999999932
10
185
20
-93.449999999999974
10
185
20
-74.999999999999972
10
191
20
-74.999999999999986
10
191
20
-64.999999999999986
10
185
20
-64.999999999999986
10
184.99999999999966
20
-29.999999999999957
10
190.99999999999966
20
-29.99999999999995
10
190.9999999999998
20
-19.999999999999932
10
184.99999999999972
20
-19.999999999999957
10
185
20
-1.5499999999999492
10
178.39999999999989
20
-1.5499999999995762
10
178.39999999999989
20
-2.7499999999999236
10
175.99999999999994
20
-2.7500000000001101
10
176
20
-1.5499999999996739
10
173.19999999999999
20
-1.5499999999997138
10
173.19999999999999
20
1.5499999999999448
10
176
20
1.5499999999999448
10
175.99999999999994
20
2.7500000000000036
10
178.39999999999989
20
2.7500000000001235
10
178.39999999999989
20
1.5500000000000691
10
185
20
1.5500000000000336
10
185
20
20.000000000000036
10
191
20
20.000000000000018
10
191
20
30.000000000000018
10
185
20
30.000000000000018
10
184.99999999999966
20
65.000000000000028
10
190.99999999999966
20
65.000000000000057
10
190.9999999999998
20
75.000000000000071
10
184.99999999999972
20
75.000000000000028
10
185
20
93.450000000000045
10
178.39999999999989
20
93.450000000000429
10
178.39999999999989
20
92.250000000000085
10
175.99999999999994
20
92.249999999999886
10
176
20
93.45000000000033
10
173.19999999999999
20
93.450000000000287
10
173.19999999999999
20
96.54999999999994
10
176
20
96.54999999999994
10
175.99999999999994
20
97.75
10
178.39999999999989
20
97.750000000000128
10
178.39999999999989
20
96.550000000000068
10
185
20
96.550000000000026
10
185
20
115.00000000000003
10
191
20
115.00000000000001
10
191
20
125.00000000000001
10
185
20
125.00000000000001
10
185
20
185
10
125
20
185.00000000000003
10
125
20
191
10
115
20
191.00000000000006
10
115
20
184.99999999999997
10
96.550000000000011
20
185.00000000000006
10
96.550000000000011
20
178.40000000000001
10
97.750000000000057
20
178.40000000000003
10
97.749999999999943
20
176
10
96.549999999999898
20
176.00000000000011
10
96.549999999999869
20
173.20000000000007
10
93.450000000000273
20
173.2000000000001
10
93.450000000000273
20
176.00000000000009
10
92.249999999999872
20
176
10
92.250000000000014
20
178.39999999999998
10
93.450000000000415
20
178.40000000000003
10
93.450000000000017
20
185.00000000000006
10
75.000000000000028
20
184.99999999999977
10
75
20
190.9999999999998
10
65
20
190.99999999999963
10
65
20
184.99999999999957
10
30
20
185
10
30
20
191
10
20
20
191.00000000000006
10
20
20
184.99999999999997
10
1.5500000000000114
20
185.00000000000006
10
1.5500000000000114
20
178.40000000000001
10
2.7500000000000924
20
178.40000000000003
10
2.7499999999999503
20
176
10
1.5499999999999048
20
176.00000000000011
10
1.5499999999998693
20
173.20000000000007
10
-1.5499999999997272
20
173.2000000000001
10
-1.5499999999997272
20
176.00000000000009
10
-2.7500000000001634
20
176
10
-2.7499999999999858
20
178.39999999999998
10
-1.5499999999996206
20
178.40000000000003
10
-1.5499999999999758
20
185.00000000000006
10
-19.999999999999964
20
184.99999999999977
10
-19.999999999999964
20
190.9999999999998
10
-30.000000000000018
20
190.99999999999963
10
-30.000000000000018
20
184.99999999999957
10
-65.000000000000014
20
185.00000000000003
10
-65
20
191
10
-75.000000000000014
20
191.00000000000006
10
-75
20
184.99999999999997
10
-93.449999999999989
20
185.00000000000006
10
-93.450000000000003
20
178.40000000000001
10
-92.249999999999929
20
178.40000000000003
10
-92.250000000000057
20
176
10
-93.450000000000102
20
176.00000000000011
10
-93.450000000000117
20
173.20000000000007
10
-96.549999999999741
20
173.2000000000001
10
-96.549999999999741
20
176.00000000000009
10
-97.750000000000142
20
176
10
-97.749999999999972
20
178.39999999999998
10
-96.549999999999599
20
178.40000000000003
10
-96.549999999999983
20
185.00000000000006
10
-114.99999999999997
20
184.99999999999977
10
-114.99999999999999
20
190.9999999999998
10
-125.00000000000001
20
190.99999999999963
10
-125.00000000000001
20
184.99999999999957
10
-185
20
185
10
-185
20
125.00000000000001
10
-191
20
125.00000000000001
10
-191
20
115.00000000000001
10
-184.99999999999997
20
115.00000000000003
10
-185
20
96.550000000000026
10
-178.39999999999992
20
96.550000000000068
10
-178.39999999999992
20
97.750000000000128
10
-175.99999999999994
20
97.75
10
-176
20
96.54999999999994
10
-173.19999999999999
20
96.54999999999994
10
-173.19999999999999
20
93.450000000000273
10
-176
20
93.45000000000033
10
-175.99999999999991
20
92.249999999999886
10
-178.39999999999989
20
92.250000000000085
10
-178.39999999999992
20
93.450000000000429
10
-185
20
93.45000000000006
10
-184.99999999999972
20
75.000000000000057
10
-190.99999999999977
20
75.000000000000085
10
-190.99999999999963
20
65.000000000000028
10
-184.99999999999969
20
65.000000000000028
10
-185
20
30
10
-191
20
30
10
-191
20
20
10
-185
20
20
10
-185
20
1.5500000000000291
10
-178.39999999999992
20
1.5500000000000647
10
-178.39999999999992
20
2.7500000000001235
10
-175.99999999999994
20
2.7500000000000036
10
-176
20
1.5499999999999448
10
-173.19999999999999
20
1.5499999999999448
10
-173.19999999999999
20
-1.5499999999997138
10
-176
20
-1.5499999999996739
10
-175.99999999999991
20
-2.7500000000001101
10
-178.39999999999989
20
-2.7499999999999236
10
-178.39999999999992
20
-1.5499999999995762
10
-185
20
-1.5499999999999492
10
-185
20
-19.999999999999929
10
-191
20
-19.999999999999929
10
-191
20
-29.999999999999929
0
LWPOLYLINE
5
129
100
AcDbEntity
8
0
100
AcDbPolyline
90
4
70
1
43
0.0
10
177.05000000000007
20
-178.50000000000759
10
177.05000000000007
20
-174.50000000000759
42
0.99999999999999989
10
173.95000000000005
20
-174.50000000000759
10
173.95000000000005
20
-178.50000000000759
42
0.99999999999999989
0
LINE
5
130
100
AcDbEntity
8
0
100
AcDbLine
10
175.50000000000006
20
-178.50000000000759
30
0
11
175.50000000000006
21
-174.50000000000759
31
0
0
LINE
5
131
100
AcDbEntity
8
0
100
AcDbLine
10
175.50000000000006
20
-175.50000000000756
30
0
11
160.00000000000003
21
-160.00000000000756
31
0
0
LINE
5
132
100
AcDbEntity
8
0
100
AcDbLine
10
160.00000000000003
20
-160.00000000000756
30
0
11
175.50000000000006
21
-160.00000000000756
31
0
0
LWPOLYLINE
5
133
100
AcDbEntity
8
0
100
AcDbPolyline
90
4
70
1
43
0.0
10
142.95000000000005
20
-178.50000000000759
42
0.99999999999999989
10
146.05000000000004
20
-178.50000000000759
10
146.05000000000004
20
-174.50000000000759
42
0.99999999999999989
10
142.95000000000005
20
-174.50000000000759
0
LWPOLYLINE
5
134
100
AcDbEntity
8
0
100
AcDbPolyline
90
4
70
1
43
0.0
10
173.95000000000005
20
-147.50000000000759
42
0.99999999999999989
10
177.05000000000007
20
-147.50000000000759
10
177.05000000000007
20
-143.50000000000759
42
0.99999999999999989
10
173.95000000000005
20
-143.50000000000759
0
LWPOLYLINE
5
135
100
AcDbEntity
8
0
100
AcDbPolyline
90
4
70
1
43
0.0
10
142.95000000000005
20
-147.50000000000759
42
0.99999999999999989
10
146.05000000000004
20
-147.50000000000759
10
146.05000000000004
20
-143.50000000000759
42
0.99999999999999989
10
142.95000000000005
20
-143.50000000000759
0
CIRCLE
5
136
100
AcDbEntity
8
0
100
AcDbCircle
10
-175.5
20
-144.50000000000756
30
0
40
1.5499999999999934
210
0
220
0
230
1
0
CIRCLE
5
137
100
AcDbEntity
8
0
100
AcDbCircle
10
-144.49999999999994
20
-175.50000000000756
30
0
40
1.5500000000000114
210
0
220
0
230
1
0
CIRCLE
5
138
100
AcDbEntity
8
0
100
AcDbCircle
10
-144.5
20
-144.50000000000756
30
0
40
1.5500000000000114
210
0
220
0
230
1
0
CIRCLE
5
139
100
AcDbEntity
8
0
100
AcDbCircle
10
-175.5
20
-175.50000000000756
30
0
40
1.5499999999999934
210
0
220
0
230
1
0
LWPOLYLINE
5
140
100
AcDbEntity
8
0
100
AcDbPolyline
90
4
70
1
43
0.0
10
-173.94999999999993
20
-178.50000000000759
10
-173.94999999999996
20
-174.50000000000759
42
0.99999999999999989
10
-177.0499999999999
20
-174.50000000000759
10
-177.04999999999995
20
-178.50000000000759
42
0.99999999999999989
0
LWPOLYLINE
5
141
100
AcDbEntity
8
0
100
AcDbPolyline
90
4
70
1
43
0.0
10
-177.0499999999999
20
-143.50000000000759
10
-177.04999999999995
20
-147.50000000000759
42
0.99999999999999989
10
-173.94999999999993
20
-147.50000000000759
10
-173.94999999999996
20
-143.50000000000759
42
0.99999999999999989
0
LWPOLYLINE
5
142
100
AcDbEntity
8
0
100
AcDbPolyline
90
4
70
1
43
0.0
10
-142.94999999999996
20
-147.50000000000759
10
-142.94999999999996
20
-143.50000000000759
42
0.99999999999999989
10
-146.04999999999995
20
-143.50000000000759
10
-146.04999999999995
20
-147.50000000000759
42
0.99999999999999989
0
LWPOLYLINE
5
143
100
AcDbEntity
8
0
100
AcDbPolyline
90
4
70
1
43
0.0
10
-146.04999999999995
20
-174.50000000000759
10
-146.04999999999995
20
-178.50000000000759
42
0.99999999999999989
10
-142.94999999999996
20
-178.50000000000759
10
-142.94999999999996
20
-174.50000000000759
42
0.99999999999999989
0
LINE
5
144
100
AcDbEntity
8
0
100
AcDbLine
10
-144.49999999999994
20
-178.50000000000759
30
0
11
-144.49999999999994
21
-174.50000000000759
31
0
0
ENDSEC
0
SECTION
2
OBJECTS
0
DICTIONARY
5
C
100
AcDbDictionary
3
ACAD_GROUP
350
D
3
ACAD_MLINESTYLE
350
17
0
DICTIONARY
5
D
100
AcDbDictionary
0
DICTIONARY
5
1A
330
C
100
AcDbDictionary
0
DICTIONARY
5
17
100
AcDbDictionary
0
ENDSEC
0
EOF
